<?xml version="1.0" encoding="UTF-8" standalone="no"?>
<!-- Generator: Adobe Illustrator 16.0.0, SVG Export Plug-In . SVG Version: 6.00 Build 0)  -->

<svg
   xmlns:dc="http://purl.org/dc/elements/1.1/"
   xmlns:cc="http://creativecommons.org/ns#"
   xmlns:rdf="http://www.w3.org/1999/02/22-rdf-syntax-ns#"
   xmlns:svg="http://www.w3.org/2000/svg"
   xmlns="http://www.w3.org/2000/svg"
   xmlns:sodipodi="http://sodipodi.sourceforge.net/DTD/sodipodi-0.dtd"
   xmlns:inkscape="http://www.inkscape.org/namespaces/inkscape"
   version="1.1"
   id="Capa_1"
   x="0px"
   y="0px"
   width="512px"
   height="512px"
   viewBox="0 0 438.533 438.533"
   style="enable-background:new 0 0 438.533 438.533;"
   xml:space="preserve"
   sodipodi:docname="cross.svg"
   inkscape:version="0.92.2 (5c3e80d, 2017-08-06)"><metadata
     id="metadata41"><rdf:RDF><cc:Work
         rdf:about=""><dc:format>image/svg+xml</dc:format><dc:type
           rdf:resource="http://purl.org/dc/dcmitype/StillImage" /></cc:Work></rdf:RDF></metadata><defs
     id="defs39" /><sodipodi:namedview
     pagecolor="#ffffff"
     bordercolor="#666666"
     borderopacity="1"
     objecttolerance="10"
     gridtolerance="10"
     guidetolerance="10"
     inkscape:pageopacity="0"
     inkscape:pageshadow="2"
     inkscape:window-width="640"
     inkscape:window-height="480"
     id="namedview37"
     showgrid="false"
     inkscape:zoom="0.4609375"
     inkscape:cx="256"
     inkscape:cy="256"
     inkscape:window-x="0"
     inkscape:window-y="0"
     inkscape:window-maximized="0"
     inkscape:current-layer="Capa_1" /><g
     id="g4"
     style="fill:#ffffff"><path
       d="M409.133,109.203c-19.608-33.592-46.205-60.189-79.798-79.796C295.736,9.801,259.058,0,219.273,0   c-39.781,0-76.47,9.801-110.063,29.407c-33.595,19.604-60.192,46.201-79.8,79.796C9.801,142.8,0,179.489,0,219.267   c0,39.78,9.804,76.463,29.407,110.062c19.607,33.592,46.204,60.189,79.799,79.798c33.597,19.605,70.283,29.407,110.063,29.407   s76.47-9.802,110.065-29.407c33.593-19.602,60.189-46.206,79.795-79.798c19.603-33.596,29.403-70.284,29.403-110.062   C438.533,179.485,428.732,142.795,409.133,109.203z M322.621,270.939c3.617,3.613,5.428,7.905,5.428,12.854   c0,5.133-1.811,9.514-5.428,13.127l-25.693,25.701c-3.614,3.613-7.994,5.42-13.135,5.42c-4.948,0-9.236-1.807-12.847-5.42   l-51.676-51.682l-51.678,51.682c-3.616,3.613-7.898,5.42-12.847,5.42c-5.14,0-9.517-1.807-13.134-5.42l-25.697-25.701   c-3.616-3.613-5.424-7.994-5.424-13.127c0-4.948,1.809-9.24,5.424-12.854l51.678-51.673l-51.678-51.678   c-3.616-3.612-5.424-7.898-5.424-12.847c0-5.14,1.809-9.517,5.424-13.134l25.697-25.693c3.617-3.616,7.994-5.424,13.134-5.424   c4.949,0,9.231,1.809,12.847,5.424l51.678,51.674l51.676-51.674c3.61-3.616,7.898-5.424,12.847-5.424   c5.141,0,9.521,1.809,13.135,5.424l25.693,25.693c3.617,3.617,5.428,7.994,5.428,13.134c0,4.948-1.811,9.235-5.428,12.847   l-51.675,51.678L322.621,270.939z"
       fill="#FFFFFF"
       id="path2"
       style="fill:#ffffff" /></g><g
     id="g6" /><g
     id="g8" /><g
     id="g10" /><g
     id="g12" /><g
     id="g14" /><g
     id="g16" /><g
     id="g18" /><g
     id="g20" /><g
     id="g22" /><g
     id="g24" /><g
     id="g26" /><g
     id="g28" /><g
     id="g30" /><g
     id="g32" /><g
     id="g34" /></svg>