<?xml version="1.0" encoding="UTF-8" standalone="no"?>
<!-- Generator: Adobe Illustrator 16.0.0, SVG Export Plug-In . SVG Version: 6.00 Build 0)  -->

<svg
   xmlns:dc="http://purl.org/dc/elements/1.1/"
   xmlns:cc="http://creativecommons.org/ns#"
   xmlns:rdf="http://www.w3.org/1999/02/22-rdf-syntax-ns#"
   xmlns:svg="http://www.w3.org/2000/svg"
   xmlns="http://www.w3.org/2000/svg"
   xmlns:sodipodi="http://sodipodi.sourceforge.net/DTD/sodipodi-0.dtd"
   xmlns:inkscape="http://www.inkscape.org/namespaces/inkscape"
   version="1.1"
   id="Capa_1"
   x="0px"
   y="0px"
   width="512px"
   height="512px"
   viewBox="0 0 462.035 462.035"
   style="enable-background:new 0 0 462.035 462.035;"
   xml:space="preserve"
   inkscape:version="0.91 r13725"
   sodipodi:docname="empty-box.svg"><metadata
     id="metadata41"><rdf:RDF><cc:Work
         rdf:about=""><dc:format>image/svg+xml</dc:format><dc:type
           rdf:resource="http://purl.org/dc/dcmitype/StillImage" /></cc:Work></rdf:RDF></metadata><defs
     id="defs39" /><sodipodi:namedview
     pagecolor="#ffffff"
     bordercolor="#666666"
     borderopacity="1"
     objecttolerance="10"
     gridtolerance="10"
     guidetolerance="10"
     inkscape:pageopacity="0"
     inkscape:pageshadow="2"
     inkscape:window-width="1366"
     inkscape:window-height="705"
     id="namedview37"
     showgrid="false"
     inkscape:zoom="0.4609375"
     inkscape:cx="256"
     inkscape:cy="256"
     inkscape:window-x="-8"
     inkscape:window-y="-8"
     inkscape:window-maximized="1"
     inkscape:current-layer="Capa_1" /><g
     id="g3"
     style="fill:#8f8f8f;fill-opacity:1"><path
       d="M457.83,158.441c-0.021-0.028-0.033-0.058-0.057-0.087l-50.184-62.48c-0.564-0.701-1.201-1.305-1.879-1.845   c-2.16-2.562-5.355-4.225-8.967-4.225H65.292c-3.615,0-6.804,1.661-8.965,4.225c-0.678,0.54-1.316,1.138-1.885,1.845l-50.178,62.48   c-0.023,0.029-0.034,0.059-0.057,0.087C1.655,160.602,0,163.787,0,167.39v193.07c0,6.5,5.27,11.771,11.77,11.771h438.496   c6.5,0,11.77-5.271,11.77-11.771V167.39C462.037,163.787,460.381,160.602,457.83,158.441z M408.516,134.615l16.873,21.005h-16.873   V134.615z M384.975,113.345v42.274H296.84c-2.514,0-4.955,0.805-6.979,2.293l-58.837,43.299l-58.849-43.305   c-2.023-1.482-4.466-2.287-6.978-2.287H77.061v-42.274H384.975z M53.523,155.62H36.65l16.873-21.005V155.62z M438.498,348.69H23.54   V179.16h137.796l62.711,46.148c4.15,3.046,9.805,3.052,13.954-0.005l62.698-46.144h137.799V348.69L438.498,348.69z"
       fill="#FFFFFF"
       id="path5"
       style="fill:#8f8f8f;fill-opacity:1" /></g><g
     id="g7" /><g
     id="g9" /><g
     id="g11" /><g
     id="g13" /><g
     id="g15" /><g
     id="g17" /><g
     id="g19" /><g
     id="g21" /><g
     id="g23" /><g
     id="g25" /><g
     id="g27" /><g
     id="g29" /><g
     id="g31" /><g
     id="g33" /><g
     id="g35" /></svg>