<?xml version="1.0" encoding="utf-8"?>
<!-- Generator: Adobe Illustrator 19.1.0, SVG Export Plug-In . SVG Version: 6.00 Build 0)  -->
<svg xmlns="http://www.w3.org/2000/svg" xmlns:xlink="http://www.w3.org/1999/xlink" version="1.1" id="Layer_1" x="0px" y="0px" viewBox="0 0 64 64" enable-background="new 0 0 64 64" xml:space="preserve" width="512px" height="512px">
<g id="Target">
	<path d="M63,31.0741997h-5.9513016C56.5363007,18.0634003,46.0849152,7.6118999,33.0741997,7.0991998V1c0-0.5528-0.4472847-1-1-1   c-0.5527,0-1,0.4472-1,1v6.0991998C18.0633011,7.6117001,7.6117005,18.0632992,7.0993009,31.0741997H1.0000008   c-0.5528001,0-1,0.4472008-1,1c0,0.5527,0.4472,1,1,1h6.0992999c0.5126996,13.0107002,10.9640999,23.4620018,23.9748993,23.9744987   V63c0,0.5527,0.4473,1,1,1c0.5527153,0,1-0.4473,1-1v-5.9513016c13.0105019-0.5126991,23.4618988-10.9639969,23.9744987-23.9744987   H63c0.5527,0,1-0.4473,1-1C64,31.5214005,63.5527,31.0741997,63,31.0741997z M33.0741997,55.0485001v-2.6276016   c0-0.5527992-0.4472847-1-1-1c-0.5527,0-1,0.4472008-1,1v2.6277008   C19.1863995,54.5372009,9.6111002,44.9618988,9.0994005,33.0741997h2.4786997c0.5527,0,1-0.4473,1-1c0-0.5527992-0.4473-1-1-1   H9.0993004C9.6107006,19.1861992,19.1862011,9.6106997,31.0741997,9.0993004v2.4787998c0,0.5527,0.4473,1,1,1   c0.5527153,0,1-0.4473,1-1V9.0993004C44.961998,9.6110001,54.5373001,19.1863003,55.0486984,31.0741997h-2.6268997   c-0.5527,0-1,0.4472008-1,1c0,0.5527,0.4473,1,1,1h2.6268005C54.5369987,44.9617996,44.9619141,54.5368996,33.0741997,55.0485001z" fill="#b0b0b0"/>
	<path d="M32.0740013,25.0739002c-3.8660011,0-7.0000019,3.1341-7.0000019,6.9999981c0,3.8661003,3.1340008,7,7.0000019,7   s7-3.1338997,7-7C39.0740013,28.2080002,35.9399986,25.0739002,32.0740013,25.0739002z M32.0740013,37.0738983   c-2.7570019,0-5.0000019-2.242897-5.0000019-5c0-2.7568989,2.243-4.9999981,5.0000019-4.9999981s5,2.2430992,5,4.9999981   C37.0740013,34.8310013,34.8310013,37.0738983,32.0740013,37.0738983z" fill="#b0b0b0"/>
</g>
<g>
</g>
<g>
</g>
<g>
</g>
<g>
</g>
<g>
</g>
<g>
</g>
<g>
</g>
<g>
</g>
<g>
</g>
<g>
</g>
<g>
</g>
<g>
</g>
<g>
</g>
<g>
</g>
<g>
</g>
</svg>
