<?xml version="1.0" encoding="UTF-8" standalone="no"?>
<!-- Generator: Adobe Illustrator 19.0.0, SVG Export Plug-In . SVG Version: 6.00 Build 0)  -->

<svg
   xmlns:dc="http://purl.org/dc/elements/1.1/"
   xmlns:cc="http://creativecommons.org/ns#"
   xmlns:rdf="http://www.w3.org/1999/02/22-rdf-syntax-ns#"
   xmlns:svg="http://www.w3.org/2000/svg"
   xmlns="http://www.w3.org/2000/svg"
   xmlns:sodipodi="http://sodipodi.sourceforge.net/DTD/sodipodi-0.dtd"
   xmlns:inkscape="http://www.inkscape.org/namespaces/inkscape"
   version="1.1"
   id="Layer_1"
   x="0px"
   y="0px"
   viewBox="0 0 286.036 286.036"
   style="enable-background:new 0 0 286.036 286.036;"
   xml:space="preserve"
   inkscape:version="0.91 r13725"
   sodipodi:docname="upload.svg"><metadata
     id="metadata41"><rdf:RDF><cc:Work
         rdf:about=""><dc:format>image/svg+xml</dc:format><dc:type
           rdf:resource="http://purl.org/dc/dcmitype/StillImage" /></cc:Work></rdf:RDF></metadata><defs
     id="defs39" /><sodipodi:namedview
     pagecolor="#ffffff"
     bordercolor="#666666"
     borderopacity="1"
     objecttolerance="10"
     gridtolerance="10"
     guidetolerance="10"
     inkscape:pageopacity="0"
     inkscape:pageshadow="2"
     inkscape:window-width="1366"
     inkscape:window-height="705"
     id="namedview37"
     showgrid="false"
     inkscape:zoom="0.82507094"
     inkscape:cx="143.01801"
     inkscape:cy="143.01801"
     inkscape:window-x="-8"
     inkscape:window-y="-8"
     inkscape:window-maximized="1"
     inkscape:current-layer="Layer_1" /><g
     id="g3"
     style="fill:#ffffff;fill-opacity:1"><path
       style="fill:#ffffff;fill-opacity:1"
       d="M231.641,113.009c-3.915-40.789-37.875-72.792-79.684-72.792c-32.351,0-60.053,19.201-72.819,46.752   c-3.844-1.225-7.849-2.056-12.095-2.056c-22.214,0-40.226,18.021-40.226,40.226c0,4.416,0.885,8.591,2.199,12.551   C11.737,147.765,0,166.26,0,187.696c0,32.092,26.013,58.105,58.105,58.105v0.018h160.896v-0.018   c37.044,0,67.035-30.009,67.035-67.044C286.036,146.075,262.615,118.927,231.641,113.009z M176.808,164.472h-15.912v35.864   c0,4.943-3.987,8.957-8.939,8.957h-17.878c-4.934,0-8.939-4.014-8.939-8.957v-35.864h-15.921c-9.708,0-13.668-6.481-8.823-14.383   l33.799-33.316c6.624-6.615,10.816-6.838,17.646,0l33.799,33.316C190.503,158,186.516,164.472,176.808,164.472z"
       id="path5" /></g><g
     id="g7" /><g
     id="g9" /><g
     id="g11" /><g
     id="g13" /><g
     id="g15" /><g
     id="g17" /><g
     id="g19" /><g
     id="g21" /><g
     id="g23" /><g
     id="g25" /><g
     id="g27" /><g
     id="g29" /><g
     id="g31" /><g
     id="g33" /><g
     id="g35" /></svg>