<?xml version="1.0" encoding="UTF-8" standalone="no"?>
<!-- Created with Inkscape (http://www.inkscape.org/) -->

<svg
   xmlns:dc="http://purl.org/dc/elements/1.1/"
   xmlns:cc="http://creativecommons.org/ns#"
   xmlns:rdf="http://www.w3.org/1999/02/22-rdf-syntax-ns#"
   xmlns:svg="http://www.w3.org/2000/svg"
   xmlns="http://www.w3.org/2000/svg"
   xmlns:sodipodi="http://sodipodi.sourceforge.net/DTD/sodipodi-0.dtd"
   xmlns:inkscape="http://www.inkscape.org/namespaces/inkscape"
   width="77.033447mm"
   height="90.599129mm"
   viewBox="0 0 272.95316 321.02053"
   id="svg4163"
   version="1.1"
   inkscape:version="0.91 r13725"
   sodipodi:docname="books.svg">
  <defs
     id="defs4165" />
  <sodipodi:namedview
     id="base"
     pagecolor="#ffffff"
     bordercolor="#666666"
     borderopacity="1.0"
     inkscape:pageopacity="0.0"
     inkscape:pageshadow="2"
     inkscape:zoom="0.35"
     inkscape:cx="-49.951991"
     inkscape:cy="-210.9183"
     inkscape:document-units="px"
     inkscape:current-layer="layer1"
     showgrid="false"
     fit-margin-top="0"
     fit-margin-left="0"
     fit-margin-right="0"
     fit-margin-bottom="0"
     inkscape:window-width="1366"
     inkscape:window-height="705"
     inkscape:window-x="-8"
     inkscape:window-y="-8"
     inkscape:window-maximized="1" />
  <metadata
     id="metadata4168">
    <rdf:RDF>
      <cc:Work
         rdf:about="">
        <dc:format>image/svg+xml</dc:format>
        <dc:type
           rdf:resource="http://purl.org/dc/dcmitype/StillImage" />
        <dc:title></dc:title>
      </cc:Work>
    </rdf:RDF>
  </metadata>
  <g
     inkscape:label="Camada 1"
     inkscape:groupmode="layer"
     id="layer1"
     transform="translate(-3.5234196,-0.42335856)">
    <path
       style="fill:#ffffff;fill-opacity:0.29411765;fill-rule:evenodd;stroke:none;stroke-width:1px;stroke-linecap:butt;stroke-linejoin:miter;stroke-opacity:1"
       d="m 159.98065,23.388311 c -2.58656,0.30187 -105.005792,67.15324 -108.510659,68.55519 -3.504867,1.40194 -13.806544,4.7814 -19.13657,-0.84117 -5.330026,-5.62257 -0.0625,-14.34342 1.472044,-16.82336 1.534543,-2.47994 56.021443,-37.01133 57.509573,-37.02414 1.48814,-0.0128 3.44815,5.1986 5.9986,5.90093 2.55045,0.70232 7.521232,0.90933 10.935192,-0.42059 3.41396,-1.32991 3.68295,-1.23834 6.30876,-7.14992 2.62581,-5.91159 3.73847,-21.91489 0.84117,-27.7585396 -2.89731,-5.84366 -5.05822,-6.29246 -8.41168,-7.14992997 -2.19108,-0.56026 -4.10219,-0.10984 -6.05687,0.55697997 -1.036962,0.35374 -2.506772,0.66324 -3.195982,1.12535 -2.91076,1.95164 -76.15849,49.0602996 -81.172706,51.7318296 -5.014216,2.67154 -12.5841254,16.04786 -13.0381024,28.17913 l 0,159.401319 c 7.8781314,20.59904 25.0681984,30.43115 50.8906594,30.28205 20.392281,1.79729 32.174089,-2.78356 37.431969,-12.19694 l 0,-135.00745 c -0.27973,-16.16069 8.887622,-28.552499 22.586712,-39.121319 0,0 55.30835,-36.05491 57.74482,-38.05584 2.43648,-2.00093 10.05852,-10.4658 3.78526,-19.97774 -5.71203,-6.40222 -13.39563,-4.5077 -15.98219,-4.20584 z"
       id="path4146"
       inkscape:connector-curvature="0"
       sodipodi:nodetypes="zzzzzzzzzssszcccccczcz" />
    <path
       inkscape:connector-curvature="0"
       style="fill:#ffffff;fill-opacity:0.29411765;fill-rule:evenodd;stroke:none;stroke-width:1px;stroke-linecap:butt;stroke-linejoin:miter;stroke-opacity:1"
       d="m 201.71877,45.816051 c -2.63941,-0.026 -5.28052,0.66315 -7.91993,1.14453 l -78.80859,53.830079 c -6.84782,6.02635 -11.19457,14.19682 -12.49219,24.98048 l -0.29687,162.08203 c 3.1,13.37102 13.53324,29.83872 47.28711,33.01171 19.81569,2.42922 27.88157,-3.41157 33.30859,-5.94921 l 88.92188,-65.72461 4.75781,-6.83985 0,-165.947269 c -4.0313,-7.78868 -9.24562,-13.5677 -21.11524,-8.03125 l -82.08203,61.859379 -13.08593,7.73242 -4.75782,1.48633 c -10.44611,4.4548 -21.48529,4.12184 -25.27929,-1.7832 -3.794,-5.90504 -1.86494,-9.05287 0,-13.97852 l 58.88476,-43.123049 c 2.2252,2.74914 4.24641,8.2152 10.41016,8.32813 6.16376,0.11292 12.19109,-0.29963 15.46289,-14.27539 l 0,-18.4375 c -4.39901,-8.2907 -8.7963,-10.32197 -13.19531,-10.36524 z m 47.99218,89.472659 0,23.19727 -59.18164,46.39258 0,-23.79102 59.18164,-45.79883 z"
       id="path4148" />
  </g>
</svg>
