<?xml version="1.0" encoding="UTF-8" standalone="no"?>
<!-- Created with Inkscape (http://www.inkscape.org/) -->

<svg
   xmlns:dc="http://purl.org/dc/elements/1.1/"
   xmlns:cc="http://creativecommons.org/ns#"
   xmlns:rdf="http://www.w3.org/1999/02/22-rdf-syntax-ns#"
   xmlns:svg="http://www.w3.org/2000/svg"
   xmlns="http://www.w3.org/2000/svg"
   xmlns:sodipodi="http://sodipodi.sourceforge.net/DTD/sodipodi-0.dtd"
   xmlns:inkscape="http://www.inkscape.org/namespaces/inkscape"
   width="564"
   height="564"
   viewBox="0 0 564 564"
   id="svg2"
   version="1.1"
   inkscape:version="0.91 r13725"
   sodipodi:docname="cadilag.svg">
  <defs
     id="defs4" />
  <sodipodi:namedview
     id="base"
     pagecolor="#ffffff"
     bordercolor="#666666"
     borderopacity="1.0"
     inkscape:pageopacity="0.0"
     inkscape:pageshadow="2"
     inkscape:zoom="0.77489686"
     inkscape:cx="129.34185"
     inkscape:cy="108.35663"
     inkscape:document-units="px"
     inkscape:current-layer="layer1"
     showgrid="false"
     inkscape:window-width="1366"
     inkscape:window-height="705"
     inkscape:window-x="-8"
     inkscape:window-y="-8"
     inkscape:window-maximized="1"
     units="px"
     width="564px" />
  <metadata
     id="metadata7">
    <rdf:RDF>
      <cc:Work
         rdf:about="">
        <dc:format>image/svg+xml</dc:format>
        <dc:type
           rdf:resource="http://purl.org/dc/dcmitype/StillImage" />
        <dc:title />
      </cc:Work>
    </rdf:RDF>
  </metadata>
  <g
     inkscape:label="Camada 1"
     inkscape:groupmode="layer"
     id="layer1"
     transform="translate(0,-488.3622)">
    <path
       style="fill:#4d4a91;fill-opacity:1;fill-rule:evenodd;stroke:none;stroke-width:1px;stroke-linecap:butt;stroke-linejoin:miter;stroke-opacity:1"
       d="m 140.92831,502.03437 307.14286,0 c 0,0 23.8507,2.80259 40.35714,20.35715 16.50644,17.55456 15.35714,38.21428 15.35714,38.21428 l 0,110.71428 -125,0 0,-43.57142 -165.71428,0 0,201.42857 -63.21429,-63.21429 -62.142846,62.14286 0,-271.07143 c 0,0 -0.59298,-17.85954 15.892856,-35.35714 17.2602,-18.31949 37.32142,-19.64286 37.32142,-19.64286 z"
       id="path3349"
       inkscape:connector-curvature="0"
       sodipodi:nodetypes="cczcccccccccsc" />
    <path
       style="fill:#404040;fill-opacity:1;fill-rule:evenodd;stroke:none;stroke-width:1px;stroke-linecap:butt;stroke-linejoin:miter;stroke-opacity:1"
       d="m 87.356884,861.32008 62.142856,-62.14285 63.03571,63.03571 0,55.89286 165.47202,-0.39752 0.25254,-21.46574 36.61803,17.04632 c 0,0 20.81473,8.92079 33.84011,7.19733 13.02538,-1.72346 23.4132,-7.92815 32.21016,-14.88039 8.79696,-6.95224 19.64286,-25 19.64286,-25 l 4.1772,1.11927 -0.35714,97.80186 c 0,0 1.73361,27.72727 -18.72288,47.12307 -20.45648,19.3959 -51.34234,17.2051 -51.34234,17.2051 l -283.63537,0 c 0,0 -29.99568,0.01 -46.83297,-20.3563 -16.837286,-20.363 -17.366506,-39.93518 -17.366506,-39.93518 z"
       id="path4153"
       inkscape:connector-curvature="0"
       sodipodi:nodetypes="ccccccczzccczcczcc" />
    <path
       style="fill:#6f6f6f;fill-opacity:1;fill-rule:evenodd;stroke:none;stroke-width:1px;stroke-linecap:butt;stroke-linejoin:miter;stroke-opacity:1"
       d="m 372.19909,850.28059 c 2.81399,0.10732 49.75001,20.96067 49.75001,20.96067 0,0 20.44242,7.64666 30.30458,5.30331 8.6538,-2.05623 21.1877,-8.72417 23.63073,-10.98682 l 1.96715,-1.8219 35.51635,-41.48699 c 0,0 7.63486,2.71271 9.7185,5.492 2.08364,2.77929 3.11081,4.12453 2.14798,8.70835 -0.96283,4.58381 -10.85633,15.59915 -10.85633,15.59915 0,0 -33.48935,41.5937 -40.65864,45.1987 -3.58465,1.8025 -11.07841,5.6646 -19.89464,7.29653 -8.81623,1.63192 -18.95492,1.03367 -28.34014,-0.97745 0,0 -65.92619,-25.41813 -68.69037,-28.78935 -2.76418,-3.37122 -1.44623,-4.33274 -1.51523,-6.81852 -0.069,-2.48578 2.4649,-6.88491 4.29314,-9.59646 1.82824,-2.71155 4.05724,-5.27334 6.31345,-6.56598 2.25621,-1.29264 3.49947,-1.62256 6.31346,-1.51524 z"
       id="path4157"
       inkscape:connector-curvature="0"
       sodipodi:nodetypes="zcsscczzcssczzzzz" />
    <path
       style="fill:#6f6f6f;fill-opacity:1;fill-rule:evenodd;stroke:none;stroke-width:1px;stroke-linecap:butt;stroke-linejoin:miter;stroke-opacity:1"
       d="m 371.58646,807.07589 c 2.81399,0.10732 49.75001,20.96067 49.75001,20.96067 0,0 20.44242,7.64666 30.30458,5.30331 8.6538,-2.05623 21.1877,-8.72417 23.63073,-10.98682 l 1.96715,-1.8219 35.51635,-41.48699 c 0,0 7.63486,2.71271 9.7185,5.492 2.08364,2.77929 3.11081,4.12453 2.14798,8.70835 -0.96283,4.58381 -10.85633,15.59915 -10.85633,15.59915 0,0 -33.48935,41.5937 -40.65864,45.1987 -3.58465,1.8025 -11.07841,5.6646 -19.89464,7.29653 -8.81623,1.63192 -18.95492,1.03367 -28.34014,-0.97745 0,0 -65.92619,-25.41813 -68.69037,-28.78935 -2.76418,-3.37122 -1.44623,-4.33274 -1.51523,-6.81852 -0.069,-2.48578 2.4649,-6.88491 4.29314,-9.59646 1.82824,-2.71155 4.05724,-5.27334 6.31345,-6.56598 2.25621,-1.29264 3.49947,-1.62256 6.31346,-1.51524 z"
       id="path4157-1"
       inkscape:connector-curvature="0"
       sodipodi:nodetypes="zcsscczzcssczzzzz" />
    <path
       style="fill:#6f6f6f;fill-opacity:1;fill-rule:evenodd;stroke:none;stroke-width:1px;stroke-linecap:butt;stroke-linejoin:miter;stroke-opacity:1"
       d="m 359.11168,772.99872 c 0,0 59.53304,-39.03678 65.74473,-41.59181 6.21169,-2.55503 9.51249,-3.51007 14.53184,-4.09039 5.01935,-0.58032 3.16423,-0.46362 15.34464,0.51543 12.18041,0.97905 48.80844,6.92029 55.57077,9.0332 6.76233,2.11291 13.23784,4.59434 14.54249,8.52212 1.30465,3.92777 -3.46572,10.53368 -3.46572,10.53368 0,0 -40.77787,49.85124 -46.50568,53.83308 -5.72781,3.98184 -15.22289,9.02671 -22.88722,10.54973 -7.66434,1.52302 -18.48324,0.90876 -21.51332,-0.0335 -3.03008,-0.94223 -68.69037,-28.59971 -68.69037,-28.59971 0,0 -7.00452,-4.24008 -7.72448,-7.85216 -0.71997,-3.61207 1.48101,-8.47311 5.05232,-10.8197 3.57131,-2.34659 0,3e-5 0,3e-5 z"
       id="path4174"
       inkscape:connector-curvature="0"
       sodipodi:nodetypes="czzzzzczzzczzc" />
  </g>
</svg>
