<?xml version="1.0" encoding="UTF-8" standalone="no"?>
<!-- Generator: Adobe Illustrator 16.0.0, SVG Export Plug-In . SVG Version: 6.00 Build 0)  -->

<svg
   xmlns:dc="http://purl.org/dc/elements/1.1/"
   xmlns:cc="http://creativecommons.org/ns#"
   xmlns:rdf="http://www.w3.org/1999/02/22-rdf-syntax-ns#"
   xmlns:svg="http://www.w3.org/2000/svg"
   xmlns="http://www.w3.org/2000/svg"
   xmlns:sodipodi="http://sodipodi.sourceforge.net/DTD/sodipodi-0.dtd"
   xmlns:inkscape="http://www.inkscape.org/namespaces/inkscape"
   version="1.1"
   id="Capa_1"
   x="0px"
   y="0px"
   width="512px"
   height="512px"
   viewBox="0 0 31.867 31.867"
   style="enable-background:new 0 0 31.867 31.867;"
   xml:space="preserve"
   inkscape:version="0.91 r13725"
   sodipodi:docname="coding.svg"><metadata
     id="metadata53"><rdf:RDF><cc:Work
         rdf:about=""><dc:format>image/svg+xml</dc:format><dc:type
           rdf:resource="http://purl.org/dc/dcmitype/StillImage" /></cc:Work></rdf:RDF></metadata><defs
     id="defs51" /><sodipodi:namedview
     pagecolor="#ffffff"
     bordercolor="#666666"
     borderopacity="1"
     objecttolerance="10"
     gridtolerance="10"
     guidetolerance="10"
     inkscape:pageopacity="0"
     inkscape:pageshadow="2"
     inkscape:window-width="863"
     inkscape:window-height="480"
     id="namedview49"
     showgrid="false"
     inkscape:zoom="0.4609375"
     inkscape:cx="256"
     inkscape:cy="256"
     inkscape:window-x="0"
     inkscape:window-y="0"
     inkscape:window-maximized="0"
     inkscape:current-layer="Capa_1" /><g
     id="g3"><g
       id="g5"><path
         d="M24.963,2.609C24.963,1.168,23.795,0,22.356,0H4.421C3.038,0,1.917,1.121,1.917,2.504v21.762    c0,1.441,1.168,2.609,2.609,2.609h17.827c1.441,0,2.609-1.168,2.609-2.609L24.963,2.609L24.963,2.609z M22.364,22.294    c0,1.095-0.889,1.983-1.983,1.983H6.498c-1.095,0-1.983-0.889-1.983-1.983V4.514c0-1.095,0.888-1.983,1.983-1.983h13.883    c1.094,0,1.981,0.888,1.981,1.983L22.364,22.294L22.364,22.294z"
         fill="#6b6b6b"
         id="path7" /><path
         d="M25.989,4.993v2.599c0.791,0,1.435,0.643,1.435,1.435v18.875c0,0.792-0.644,1.435-1.435,1.435H10.876    c-0.755,0-1.368-0.612-1.368-1.368H6.977v1.289c0,1.441,1.168,2.609,2.609,2.609h17.757c1.439,0,2.607-1.169,2.607-2.609V7.602    c0-1.441-1.168-2.609-2.607-2.609H25.989z"
         fill="#6b6b6b"
         id="path9" /><path
         d="M7.799,8.411H19.31c0.707,0,1.279-0.558,1.279-1.265S20.017,5.88,19.31,5.88H7.799c-0.707,0-1.279,0.559-1.279,1.266    C6.521,7.853,7.092,8.411,7.799,8.411z"
         fill="#6b6b6b"
         id="path11" /><path
         d="M7.799,12.651H19.31c0.707,0,1.279-0.561,1.279-1.265c0-0.707-0.572-1.265-1.279-1.265H7.799    c-0.707,0-1.279,0.558-1.279,1.265C6.521,12.09,7.092,12.651,7.799,12.651z"
         fill="#6b6b6b"
         id="path13" /><path
         d="M7.799,16.891H19.31c0.707,0,1.279-0.56,1.279-1.265c0-0.706-0.572-1.265-1.279-1.265H7.799    c-0.707,0-1.279,0.559-1.279,1.265C6.521,16.331,7.092,16.891,7.799,16.891z"
         fill="#6b6b6b"
         id="path15" /><path
         d="M7.799,20.994H19.31c0.707,0,1.279-0.559,1.279-1.266c0-0.705-0.572-1.267-1.279-1.267H7.799    c-0.707,0-1.279,0.562-1.279,1.267C6.521,20.436,7.092,20.994,7.799,20.994z"
         fill="#6b6b6b"
         id="path17" /></g></g><g
     id="g19" /><g
     id="g21" /><g
     id="g23" /><g
     id="g25" /><g
     id="g27" /><g
     id="g29" /><g
     id="g31" /><g
     id="g33" /><g
     id="g35" /><g
     id="g37" /><g
     id="g39" /><g
     id="g41" /><g
     id="g43" /><g
     id="g45" /><g
     id="g47" /></svg>