<?xml version="1.0" encoding="UTF-8" standalone="no"?>
<svg
   xmlns:dc="http://purl.org/dc/elements/1.1/"
   xmlns:cc="http://creativecommons.org/ns#"
   xmlns:rdf="http://www.w3.org/1999/02/22-rdf-syntax-ns#"
   xmlns:svg="http://www.w3.org/2000/svg"
   xmlns="http://www.w3.org/2000/svg"
   xmlns:sodipodi="http://sodipodi.sourceforge.net/DTD/sodipodi-0.dtd"
   xmlns:inkscape="http://www.inkscape.org/namespaces/inkscape"
   version="1.1"
   id="Capa_1"
   x="0px"
   y="0px"
   width="512px"
   height="512px"
   viewBox="0 0 493.356 493.355"
   style="enable-background:new 0 0 493.356 493.355;"
   xml:space="preserve"
   class=""
   sodipodi:docname="connect.svg"
   inkscape:version="0.92.1 r15371"><metadata
     id="metadata3691"><rdf:RDF><cc:Work
         rdf:about=""><dc:format>image/svg+xml</dc:format><dc:type
           rdf:resource="http://purl.org/dc/dcmitype/StillImage" /><dc:title></dc:title></cc:Work></rdf:RDF></metadata><defs
     id="defs3689" /><sodipodi:namedview
     pagecolor="#ffffff"
     bordercolor="#666666"
     borderopacity="1"
     objecttolerance="10"
     gridtolerance="10"
     guidetolerance="10"
     inkscape:pageopacity="0"
     inkscape:pageshadow="2"
     inkscape:window-width="1366"
     inkscape:window-height="705"
     id="namedview3687"
     showgrid="false"
     inkscape:zoom="1.0507812"
     inkscape:cx="97.546468"
     inkscape:cy="256"
     inkscape:window-x="-8"
     inkscape:window-y="-8"
     inkscape:window-maximized="1"
     inkscape:current-layer="g3682" /><g
     id="g3684"><g
       id="g3682"><path
         style="fill:#818181;stroke-width:0.58908743;fill-opacity:1"
         d="M 93.263672 8.5644531 A 78.037177 78.037177 0 0 0 15.226562 86.601562 A 78.037177 78.037177 0 0 0 93.263672 164.63867 A 78.037177 78.037177 0 0 0 171.30078 86.601562 A 78.037177 78.037177 0 0 0 93.263672 8.5644531 z M 173.49805 139.49023 C 172.07428 139.48608 170.80708 140.04448 169.69531 141.15625 L 146.85938 163.99023 C 145.74844 165.10117 145.19336 166.36784 145.19336 167.79492 C 145.19336 169.22035 145.74886 170.49103 146.85938 171.60156 L 295.28125 320.02344 L 268.64062 346.66211 C 267.05526 348.24749 266.6596 350.15244 267.45312 352.37305 C 268.32455 354.51161 269.91063 355.69827 272.21289 355.93945 L 360.09961 359.38867 C 361.68457 359.38825 363.02969 358.83164 364.14062 357.7207 C 365.17283 356.68849 365.68988 355.38379 365.68945 353.79883 L 361.64648 266.50781 C 361.40572 264.20514 360.21847 262.61709 358.07617 261.74609 C 355.93636 260.8751 354.03017 261.2706 352.36523 262.93555 L 325.72461 289.57617 L 177.30469 141.15625 C 176.19416 140.04574 174.92347 139.49023 173.49805 139.49023 z M 426.34961 351.16797 A 78.037177 78.037177 0 0 0 348.3125 429.20508 A 78.037177 78.037177 0 0 0 426.34961 507.24219 A 78.037177 78.037177 0 0 0 504.38672 429.20508 A 78.037177 78.037177 0 0 0 426.34961 351.16797 z "
         transform="matrix(0.96358594,0,0,0.96358594,0,-5e-4)"
         id="path3680" /></g></g></svg>