<?xml version="1.0" encoding="utf-8"?>
<!-- Generator: Adobe Illustrator 15.0.2, SVG Export Plug-In . SVG Version: 6.00 Build 0)  -->
<!DOCTYPE svg PUBLIC "-//W3C//DTD SVG 1.1//EN" "http://www.w3.org/Graphics/SVG/1.1/DTD/svg11.dtd">
<svg version="1.1" id="Layer_1" xmlns="http://www.w3.org/2000/svg" xmlns:xlink="http://www.w3.org/1999/xlink" x="0px" y="0px"
	 width="512px" height="658.296px" viewBox="0 0 512 658.296" enable-background="new 0 0 512 658.296" xml:space="preserve">
<path d="M21.943,73.148h468.113c16.169,0,21.943,65.83,21.943,65.83H0C0,138.979,5.784,73.148,21.943,73.148z M212.117,0h87.774
	c8.084,0,29.27,21.186,29.27,29.261c0,8.075-21.186,29.261-29.27,29.261h-87.774c-8.075,0-29.261-21.186-29.261-29.261
	C182.856,21.186,204.042,0,212.117,0z M65.83,160.922h380.34c16.169,0,29.27,13.102,29.27,29.261l-29.27,438.88
	c0,16.15-13.084,29.233-29.234,29.233H95.082c-16.159,0-29.252-13.083-29.252-29.233l-29.261-438.88
	C36.569,174.023,49.671,160.922,65.83,160.922z M109.718,219.435l7.309,380.357h51.204l-7.317-380.357H109.718z M226.743,219.435
	v380.357h58.531V219.435H226.743z M351.105,219.435l-7.327,380.357h51.214l7.29-380.357H351.105z"/>
</svg>
