<?xml version="1.0" encoding="UTF-8" standalone="no"?>
<!-- Created with Inkscape (http://www.inkscape.org/) -->

<svg
   xmlns:dc="http://purl.org/dc/elements/1.1/"
   xmlns:cc="http://creativecommons.org/ns#"
   xmlns:rdf="http://www.w3.org/1999/02/22-rdf-syntax-ns#"
   xmlns:svg="http://www.w3.org/2000/svg"
   xmlns="http://www.w3.org/2000/svg"
   xmlns:sodipodi="http://sodipodi.sourceforge.net/DTD/sodipodi-0.dtd"
   xmlns:inkscape="http://www.inkscape.org/namespaces/inkscape"
   width="70mm"
   height="70mm"
   viewBox="0 0 70 70"
   version="1.1"
   id="svg1322"
   sodipodi:docname="expand_tree.svg"
   inkscape:version="0.92.2 (5c3e80d, 2017-08-06)">
  <defs
     id="defs1316" />
  <sodipodi:namedview
     id="base"
     pagecolor="#ffffff"
     bordercolor="#666666"
     borderopacity="1.0"
     inkscape:pageopacity="0.0"
     inkscape:pageshadow="2"
     inkscape:zoom="0.98994949"
     inkscape:cx="47.155538"
     inkscape:cy="227.67002"
     inkscape:document-units="mm"
     inkscape:current-layer="layer1"
     showgrid="false"
     showguides="false"
     inkscape:window-width="1366"
     inkscape:window-height="705"
     inkscape:window-x="-8"
     inkscape:window-y="-8"
     inkscape:window-maximized="1" />
  <metadata
     id="metadata1319">
    <rdf:RDF>
      <cc:Work
         rdf:about="">
        <dc:format>image/svg+xml</dc:format>
        <dc:type
           rdf:resource="http://purl.org/dc/dcmitype/StillImage" />
        <dc:title></dc:title>
      </cc:Work>
    </rdf:RDF>
  </metadata>
  <g
     inkscape:label="Camada 1"
     inkscape:groupmode="layer"
     id="layer1"
     transform="translate(0,-227)">
    <g
       id="g941"
       transform="matrix(2.0663128,0,0,2.0663128,5.8697791,232.55272)">
      <g
         id="g880">
        <g
           id="c115_arrows">
          <path
             id="path870"
             d="m 28.36,19.595 c 0,-0.868 -0.665,-1.57 -1.491,-1.57 -0.819,0.002 -1.492,0.702 -1.492,1.57 v 3.25 l -6.018,-6.021 c -0.582,-0.583 -1.524,-0.583 -2.106,0 -0.582,0.582 -0.582,1.527 0,2.109 l 5.989,5.987 h -3.235 c -0.881,0.002 -1.591,0.669 -1.591,1.491 0,0.824 0.71,1.49 1.591,1.49 h 6.761 c 0.881,0 1.59,-0.665 1.593,-1.49 -0.003,-0.022 -0.006,-0.039 -0.009,-0.061 0.003,-0.028 0.009,-0.058 0.009,-0.087 v -6.668 z"
             inkscape:connector-curvature="0" />
          <path
             id="path872"
             d="m 9,16.824 -6.015,6.021 v -3.25 c 0,-0.868 -0.672,-1.568 -1.493,-1.57 -0.824,0 -1.49,0.702 -1.49,1.57 L 0,26.264 c 0,0.029 0.008,0.059 0.01,0.087 -0.002,0.021 -0.006,0.038 -0.008,0.061 0.002,0.825 0.712,1.49 1.592,1.49 h 6.762 c 0.879,0 1.59,-0.666 1.59,-1.49 0,-0.822 -0.711,-1.489 -1.59,-1.491 H 5.121 l 5.989,-5.987 c 0.58,-0.582 0.58,-1.527 0,-2.109 C 10.527,16.241 9.584,16.241 9,16.824 Z"
             inkscape:connector-curvature="0" />
          <path
             id="path874"
             d="m 19.359,11.535 6.018,-6.017 v 3.25 c 0,0.865 0.673,1.565 1.492,1.568 0.826,0 1.491,-0.703 1.491,-1.568 V 2.097 C 28.36,2.068 28.354,2.038 28.351,2.012 28.354,1.991 28.357,1.971 28.36,1.95 28.357,1.124 27.648,0.459 26.768,0.459 h -6.761 c -0.881,0 -1.591,0.665 -1.591,1.491 0,0.821 0.71,1.49 1.591,1.492 h 3.235 l -5.989,5.987 c -0.582,0.581 -0.582,1.524 0,2.105 0.582,0.586 1.524,0.586 2.106,10e-4 z"
             inkscape:connector-curvature="0" />
          <path
             id="path876"
             d="M 5.121,3.442 H 8.355 C 9.234,3.44 9.945,2.771 9.945,1.95 9.945,1.124 9.234,0.459 8.355,0.459 H 1.594 C 0.714,0.459 0.004,1.124 0.002,1.95 0.004,1.971 0.008,1.991 0.01,2.012 0.008,2.038 0,2.067 0,2.097 l 0.002,6.672 c 0,0.865 0.666,1.568 1.49,1.568 C 2.313,10.334 2.985,9.634 2.985,8.769 V 5.519 L 9,11.535 c 0.584,0.585 1.527,0.585 2.11,0 0.58,-0.581 0.58,-1.524 0,-2.105 z"
             inkscape:connector-curvature="0" />
        </g>
        <g
           id="Capa_1_253_" />
      </g>
      <g
         id="g882" />
      <g
         id="g884" />
      <g
         id="g886" />
      <g
         id="g888" />
      <g
         id="g890" />
      <g
         id="g892" />
      <g
         id="g894" />
      <g
         id="g896" />
      <g
         id="g898" />
      <g
         id="g900" />
      <g
         id="g902" />
      <g
         id="g904" />
      <g
         id="g906" />
      <g
         id="g908" />
      <g
         id="g910" />
    </g>
  </g>
</svg>
