<?xml version="1.0" encoding="UTF-8" standalone="no"?>
<!-- Created with Inkscape (http://www.inkscape.org/) -->

<svg
   xmlns:dc="http://purl.org/dc/elements/1.1/"
   xmlns:cc="http://creativecommons.org/ns#"
   xmlns:rdf="http://www.w3.org/1999/02/22-rdf-syntax-ns#"
   xmlns:svg="http://www.w3.org/2000/svg"
   xmlns="http://www.w3.org/2000/svg"
   xmlns:sodipodi="http://sodipodi.sourceforge.net/DTD/sodipodi-0.dtd"
   xmlns:inkscape="http://www.inkscape.org/namespaces/inkscape"
   width="1128"
   height="564"
   viewBox="0 0 1128 564"
   id="svg2"
   version="1.1"
   inkscape:version="0.92.2 (5c3e80d, 2017-08-06)"
   sodipodi:docname="fulllogo.svg">
  <defs
     id="defs4" />
  <sodipodi:namedview
     id="base"
     pagecolor="#ffffff"
     bordercolor="#666666"
     borderopacity="1.0"
     inkscape:pageopacity="0.0"
     inkscape:pageshadow="2"
     inkscape:zoom="0.27040672"
     inkscape:cx="1069.4039"
     inkscape:cy="143.23488"
     inkscape:document-units="px"
     inkscape:current-layer="layer1"
     showgrid="false"
     inkscape:window-width="1366"
     inkscape:window-height="705"
     inkscape:window-x="-8"
     inkscape:window-y="-8"
     inkscape:window-maximized="1"
     units="px"
     width="564px" />
  <metadata
     id="metadata7">
    <rdf:RDF>
      <cc:Work
         rdf:about="">
        <dc:format>image/svg+xml</dc:format>
        <dc:type
           rdf:resource="http://purl.org/dc/dcmitype/StillImage" />
        <dc:title></dc:title>
      </cc:Work>
    </rdf:RDF>
  </metadata>
  <g
     inkscape:label="Camada 1"
     inkscape:groupmode="layer"
     id="layer1"
     transform="translate(0,-488.3622)">
    <path
       style="fill:#4d4a91;fill-opacity:1;fill-rule:evenodd;stroke:none;stroke-width:0.65282041px;stroke-linecap:butt;stroke-linejoin:miter;stroke-opacity:1"
       d="M 81.349372,557.50637 H 281.8585 c 0,0 15.57023,1.82959 26.34597,13.28956 10.77574,11.45998 10.02546,24.94707 10.02546,24.94707 v 72.27654 H 236.62737 V 639.57523 H 128.4457 V 771.07191 L 87.178132,729.80433 46.610016,770.37246 V 593.4115 c 0,0 -0.38711,-11.65907 10.375181,-23.08187 11.267808,-11.95933 24.364175,-12.82326 24.364175,-12.82326 z"
       id="path3349"
       inkscape:connector-curvature="0"
       sodipodi:nodetypes="cczcccccccccsc" />
    <path
       style="fill:#404040;fill-opacity:1;fill-rule:evenodd;stroke:none;stroke-width:0.65282041px;stroke-linecap:butt;stroke-linejoin:miter;stroke-opacity:1"
       d="m 46.376861,792.05542 40.568121,-40.56812 41.150998,41.151 v 36.488 l 108.02351,-0.25951 0.16486,-14.01328 23.905,11.12819 c 0,0 13.58829,5.82368 22.09152,4.69857 8.50324,-1.12511 15.28461,-5.17566 21.02745,-9.71423 5.74284,-4.53856 12.82326,-16.32051 12.82326,-16.32051 l 2.72696,0.73069 -0.23315,63.84705 c 0,0 1.13174,18.10093 -12.22267,30.76293 -13.35442,12.66201 -33.51733,11.23183 -33.51733,11.23183 H 87.722422 c 0,0 -19.581787,0.008 -30.573511,-13.28905 -10.991724,-13.29339 -11.33721,-26.07046 -11.33721,-26.07046 z"
       id="path4153"
       inkscape:connector-curvature="0"
       sodipodi:nodetypes="ccccccczzccczcczcc" />
    <path
       style="fill:#6f6f6f;fill-opacity:1;fill-rule:evenodd;stroke:none;stroke-width:0.65282041px;stroke-linecap:butt;stroke-linejoin:miter;stroke-opacity:1"
       d="m 232.32767,784.84862 c 1.83703,0.07 32.47782,13.68355 32.47782,13.68355 0,0 13.34522,4.99189 19.78344,3.46211 5.64938,-1.34235 13.83177,-5.69532 15.42663,-7.17242 l 1.28419,-1.18937 23.1858,-27.08356 c 0,0 4.9842,1.77091 6.34443,3.58529 1.36025,1.81438 2.03081,2.69258 1.40225,5.68499 -0.62855,2.9924 -7.08724,10.18344 -7.08724,10.18344 0,0 -21.86252,27.15322 -26.54278,29.50663 -2.34014,1.17671 -7.23222,3.69798 -12.98763,4.76333 -5.75542,1.06535 -12.37416,0.67481 -18.50102,-0.6381 0,0 -43.03797,-16.59348 -44.84247,-18.79427 -1.80452,-2.2008 -0.94414,-2.82851 -0.98918,-4.45127 -0.045,-1.62277 1.60914,-4.49462 2.80264,-6.26476 1.19352,-1.77016 2.64866,-3.44256 4.12156,-4.28641 1.4729,-0.84386 2.28453,-1.05924 4.12156,-0.98918 z"
       id="path4157"
       inkscape:connector-curvature="0"
       sodipodi:nodetypes="zcsscczzcssczzzzz" />
    <path
       style="fill:#6f6f6f;fill-opacity:1;fill-rule:evenodd;stroke:none;stroke-width:0.65282041px;stroke-linecap:butt;stroke-linejoin:miter;stroke-opacity:1"
       d="m 231.92773,756.64371 c 1.83703,0.07 32.47782,13.68355 32.47782,13.68355 0,0 13.34523,4.99189 19.78344,3.46211 5.64938,-1.34235 13.83177,-5.69532 15.42663,-7.17242 l 1.28419,-1.18937 23.18581,-27.08356 c 0,0 4.98419,1.77091 6.34443,3.58529 1.36024,1.81438 2.0308,2.69258 1.40224,5.68499 -0.62855,2.9924 -7.08723,10.18344 -7.08723,10.18344 0,0 -21.86253,27.15322 -26.54279,29.50664 -2.34013,1.1767 -7.23221,3.69797 -12.98762,4.76332 -5.75542,1.06535 -12.37417,0.6748 -18.50103,-0.6381 0,0 -43.03796,-16.59347 -44.84247,-18.79428 -1.80452,-2.20079 -0.94414,-2.8285 -0.98918,-4.45126 -0.045,-1.62277 1.60914,-4.49462 2.80265,-6.26477 1.19351,-1.77015 2.64865,-3.44254 4.12155,-4.2864 1.4729,-0.84386 2.28453,-1.05925 4.12156,-0.98918 z"
       id="path4157-1"
       inkscape:connector-curvature="0"
       sodipodi:nodetypes="zcsscczzcssczzzzz" />
    <path
       style="fill:#6f6f6f;fill-opacity:1;fill-rule:evenodd;stroke:none;stroke-width:0.65282041px;stroke-linecap:butt;stroke-linejoin:miter;stroke-opacity:1"
       d="m 223.78394,734.39744 c 0,0 38.86438,-25.48401 42.9195,-27.15199 4.05511,-1.66797 6.20994,-2.29144 9.48668,-2.67029 3.27673,-0.37885 2.06567,-0.30266 10.0173,0.33648 7.95161,0.63915 31.86314,4.51771 36.27773,5.89706 4.41459,1.37936 8.64192,2.99928 9.49363,5.56342 0.8517,2.56412 -2.26249,6.8766 -2.26249,6.8766 0,0 -26.62063,32.5439 -30.35986,35.14333 -3.73923,2.59943 -9.93781,5.89282 -14.94125,6.88708 -5.00343,0.99426 -12.06623,0.59326 -14.04433,-0.0218 -1.9781,-0.61511 -44.84248,-18.67048 -44.84248,-18.67048 0,0 -4.57269,-2.76801 -5.04269,-5.12605 -0.47001,-2.35803 0.96683,-5.53142 3.29826,-7.06332 2.33142,-1.53191 0,2e-5 0,2e-5 z"
       id="path4174"
       inkscape:connector-curvature="0"
       sodipodi:nodetypes="czzzzzczzzczzc" />
    <flowRoot
       xml:space="preserve"
       id="flowRoot817"
       style="font-style:normal;font-weight:normal;font-size:40px;line-height:1.25;font-family:sans-serif;letter-spacing:0px;word-spacing:0px;fill:#000000;fill-opacity:1;stroke:none"
       transform="translate(0,488.3622)"><flowRegion
         id="flowRegion819"><rect
           id="rect821"
           width="1305.4409"
           height="477.05914"
           x="621.28632"
           y="27.770721" /></flowRegion><flowPara
         id="flowPara823"></flowPara></flowRoot>    <g
       aria-label="adilag"
       style="font-style:normal;font-variant:normal;font-weight:normal;font-stretch:normal;font-size:289.40139771px;line-height:1.25;font-family:Prototype;-inkscape-font-specification:'Prototype, Normal';font-variant-ligatures:normal;font-variant-caps:normal;font-variant-numeric:normal;font-feature-settings:normal;text-align:start;letter-spacing:0px;word-spacing:0px;writing-mode:lr-tb;text-anchor:start;fill:#404040;fill-opacity:1;stroke:none;stroke-width:1.50729907"
       id="text827">
      <path
         d="m 360.68873,740.57591 v 29.51894 q 0,2.89401 2.89401,2.89401 h 76.11257 q 4.63042,0 7.52444,4.05162 2.89401,4.05162 2.89401,8.10324 0,4.91983 -4.63042,8.68204 -4.34102,3.47282 -11.86546,3.47282 h -48.33003 q -8.68204,0 -14.75947,4.91983 -6.07743,4.91982 -9.83965,12.15485 -3.76222,6.94564 -5.49863,15.33828 -1.73641,8.39264 -1.73641,15.33827 0,3.76222 1.15761,10.99726 1.15761,7.23503 4.05162,14.47007 3.18342,7.23503 8.68204,12.73366 5.49863,5.20922 14.18067,5.20922 h 101.00109 q 2.89401,0 2.89401,-2.89401 v -95.50246 q 0,-9.26085 -2.31521,-18.52169 -2.02581,-9.26085 -6.94563,-16.78528 -4.63042,-7.52444 -12.44426,-12.15486 -7.52444,-4.91983 -18.52169,-4.91983 h -81.6112 q -2.89401,0 -2.89401,2.89402 z m 36.75398,114.02415 q -5.20923,0 -8.10324,-3.76222 -2.89402,-3.76222 -2.89402,-8.68204 0,-4.05162 2.60462,-7.23504 2.60461,-3.47281 6.65623,-3.47281 h 51.51345 q 2.89401,0 2.89401,2.89401 v 17.36408 q 0,2.89402 -2.89401,2.89402 z"
         style="font-style:normal;font-variant:normal;font-weight:normal;font-stretch:normal;font-size:289.40139771px;font-family:Prototype;-inkscape-font-specification:'Prototype, Normal';font-variant-ligatures:normal;font-variant-caps:normal;font-variant-numeric:normal;font-feature-settings:normal;text-align:start;writing-mode:lr-tb;text-anchor:start;fill:#404040;fill-opacity:1;stroke-width:1.50729907"
         id="path837" />
      <path
         d="m 610.52806,734.78788 v -50.93465 q 0,-2.89401 2.89401,-2.89401 h 29.51894 q 2.89402,0 2.89402,2.89401 v 201.71278 q 0,2.89401 -2.89402,2.89401 h -90.00383 q -13.89127,0 -23.73092,-6.94563 -9.83964,-7.23504 -16.20647,-18.23229 -6.36683,-10.99725 -9.55025,-24.02032 -2.89401,-13.02306 -2.89401,-25.17792 0,-17.07468 2.89401,-31.25535 3.18342,-14.18067 9.55025,-24.02031 6.36683,-10.12905 16.20647,-15.62768 9.83965,-5.49863 23.73092,-5.49863 h 54.69686 q 2.89402,0 2.89402,-2.89401 z m 0,41.095 q 0,-2.89402 -2.89402,-2.89402 h -31.54475 q -8.97144,0 -16.49588,1.73641 -7.23503,1.44701 -12.73366,6.07743 -5.20923,4.34102 -8.10324,12.44426 -2.89401,8.10324 -2.89401,20.8369 0,11.86546 2.89401,19.3899 2.89401,7.52443 8.10324,11.86545 5.20922,4.34102 12.44426,6.07743 7.52444,1.73641 16.78528,1.73641 h 31.54475 q 2.89402,0 2.89402,-2.89401 z"
         style="font-style:normal;font-variant:normal;font-weight:normal;font-stretch:normal;font-size:289.40139771px;font-family:Prototype;-inkscape-font-specification:'Prototype, Normal';font-variant-ligatures:normal;font-variant-caps:normal;font-variant-numeric:normal;font-feature-settings:normal;text-align:start;writing-mode:lr-tb;text-anchor:start;fill:#404040;fill-opacity:1;stroke-width:1.50729907"
         id="path839" />
      <path
         d="m 670.02717,885.56601 q 0,2.89401 2.89401,2.89401 h 29.51895 q 2.89401,0 2.89401,-2.89401 v -144.9901 q 0,-2.89402 -2.89401,-2.89402 h -29.51895 q -2.89401,0 -2.89401,2.89402 z m 0,-201.71278 v 29.51895 q 0,2.89401 2.89401,2.89401 h 29.51895 q 2.89401,0 2.89401,-2.89401 v -29.51895 q 0,-2.89401 -2.89401,-2.89401 h -29.51895 q -2.89401,0 -2.89401,2.89401 z"
         style="font-style:normal;font-variant:normal;font-weight:normal;font-stretch:normal;font-size:289.40139771px;font-family:Prototype;-inkscape-font-specification:'Prototype, Normal';font-variant-ligatures:normal;font-variant-caps:normal;font-variant-numeric:normal;font-feature-settings:normal;text-align:start;writing-mode:lr-tb;text-anchor:start;fill:#404040;fill-opacity:1;stroke-width:1.50729907"
         id="path841" />
      <path
         d="m 729.37705,683.85323 v 171.61503 0.57881 29.51894 q 0,2.89401 2.89402,2.89401 h 29.51894 q 2.89401,0 2.89401,-2.89401 v -29.51894 -0.57881 -171.61503 q 0,-2.89401 -2.89401,-2.89401 h -29.51894 q -2.89402,0 -2.89402,2.89401 z"
         style="font-style:normal;font-variant:normal;font-weight:normal;font-stretch:normal;font-size:289.40139771px;font-family:Prototype;-inkscape-font-specification:'Prototype, Normal';font-variant-ligatures:normal;font-variant-caps:normal;font-variant-numeric:normal;font-feature-settings:normal;text-align:start;writing-mode:lr-tb;text-anchor:start;fill:#404040;fill-opacity:1;stroke-width:1.50729907"
         id="path843" />
      <path
         d="m 794.2256,740.57591 v 29.51894 q 0,2.89401 2.89401,2.89401 h 76.11257 q 4.63042,0 7.52443,4.05162 2.89402,4.05162 2.89402,8.10324 0,4.91983 -4.63043,8.68204 -4.34102,3.47282 -11.86545,3.47282 h -48.33004 q -8.68204,0 -14.75947,4.91983 -6.07743,4.91982 -9.83964,12.15485 -3.76222,6.94564 -5.49863,15.33828 -1.73641,8.39264 -1.73641,15.33827 0,3.76222 1.15761,10.99726 1.1576,7.23503 4.05162,14.47007 3.18341,7.23503 8.68204,12.73366 5.49862,5.20922 14.18067,5.20922 h 101.00108 q 2.89402,0 2.89402,-2.89401 v -95.50246 q 0,-9.26085 -2.31521,-18.52169 -2.02581,-9.26085 -6.94564,-16.78528 -4.63042,-7.52444 -12.44426,-12.15486 -7.52443,-4.91983 -18.52169,-4.91983 h -81.61119 q -2.89401,0 -2.89401,2.89402 z m 36.75397,114.02415 q -5.20922,0 -8.10324,-3.76222 -2.89401,-3.76222 -2.89401,-8.68204 0,-4.05162 2.60461,-7.23504 2.60461,-3.47281 6.65623,-3.47281 h 51.51345 q 2.89402,0 2.89402,2.89401 v 17.36408 q 0,2.89402 -2.89402,2.89402 z"
         style="font-style:normal;font-variant:normal;font-weight:normal;font-stretch:normal;font-size:289.40139771px;font-family:Prototype;-inkscape-font-specification:'Prototype, Normal';font-variant-ligatures:normal;font-variant-caps:normal;font-variant-numeric:normal;font-feature-settings:normal;text-align:start;writing-mode:lr-tb;text-anchor:start;fill:#404040;fill-opacity:1;stroke-width:1.50729907"
         id="path845" />
      <path
         d="m 953.77169,917.40016 v 26.62493 q 0,2.89401 2.89401,2.89401 h 86.8204 q 7.8139,0 14.7595,-4.05162 6.9456,-3.76221 12.1548,-9.83964 5.2093,-5.78803 8.1033,-13.02307 3.1834,-6.94563 3.1834,-13.02306 V 751.86256 q 0,-7.52443 -4.341,-10.70785 -4.341,-3.47282 -11.5761,-3.47282 h -66.8517 q -15.62767,0 -27.20373,5.20923 -11.28665,5.20922 -18.52169,13.89127 -7.23503,8.39264 -10.70785,19.38989 -3.47282,10.99725 -3.47282,22.86271 v 18.52169 q 0,17.07468 5.49863,30.38715 5.78803,13.02306 14.75947,22.2839 8.97145,8.97145 19.9687,13.60187 11.28665,4.63042 22.57329,4.63042 h 43.1208 v 7.23504 q 0,2.60461 -0.2894,5.78802 0,3.47282 -1.1576,6.07743 -0.8682,2.89402 -2.894,4.91983 -2.0258,2.02581 -5.788,2.02581 h -78.1384 q -2.89401,0 -2.89401,2.89401 z M 977.792,814.08386 v -7.52443 q 0,-15.62768 6.07743,-24.59912 6.36683,-8.97145 20.25807,-8.97145 h 37.9116 q 2.894,0 2.894,2.89402 v 74.37616 q 0,2.89401 -2.894,2.89401 h -18.5217 q -13.3124,0 -22.2839,-2.31521 -8.68203,-2.31521 -13.89125,-7.23503 -5.20923,-4.91983 -7.52444,-12.15486 -2.02581,-7.23504 -2.02581,-17.36409 z"
         style="font-style:normal;font-variant:normal;font-weight:normal;font-stretch:normal;font-size:289.40139771px;font-family:Prototype;-inkscape-font-specification:'Prototype, Normal';font-variant-ligatures:normal;font-variant-caps:normal;font-variant-numeric:normal;font-feature-settings:normal;text-align:start;writing-mode:lr-tb;text-anchor:start;fill:#404040;fill-opacity:1;stroke-width:1.50729907"
         id="path847" />
    </g>
  </g>
</svg>
