<?xml version="1.0" encoding="UTF-8" standalone="no"?>
<!-- Generator: Adobe Illustrator 19.0.0, SVG Export Plug-In . SVG Version: 6.00 Build 0)  -->

<svg
   xmlns:dc="http://purl.org/dc/elements/1.1/"
   xmlns:cc="http://creativecommons.org/ns#"
   xmlns:rdf="http://www.w3.org/1999/02/22-rdf-syntax-ns#"
   xmlns:svg="http://www.w3.org/2000/svg"
   xmlns="http://www.w3.org/2000/svg"
   xmlns:sodipodi="http://sodipodi.sourceforge.net/DTD/sodipodi-0.dtd"
   xmlns:inkscape="http://www.inkscape.org/namespaces/inkscape"
   version="1.1"
   id="Layer_1"
   x="0px"
   y="0px"
   viewBox="0 0 512 512"
   style="enable-background:new 0 0 512 512;"
   xml:space="preserve"
   width="512px"
   height="512px"
   inkscape:version="0.91 r13725"
   sodipodi:docname="garbage.svg"><metadata
     id="metadata49"><rdf:RDF><cc:Work
         rdf:about=""><dc:format>image/svg+xml</dc:format><dc:type
           rdf:resource="http://purl.org/dc/dcmitype/StillImage" /><dc:title></dc:title></cc:Work></rdf:RDF></metadata><defs
     id="defs47" /><sodipodi:namedview
     pagecolor="#6c6c6c"
     bordercolor="#666666"
     borderopacity="1"
     objecttolerance="10"
     gridtolerance="10"
     guidetolerance="10"
     inkscape:pageopacity="0"
     inkscape:pageshadow="2"
     inkscape:window-width="1366"
     inkscape:window-height="705"
     id="namedview45"
     showgrid="false"
     inkscape:zoom="0.32593203"
     inkscape:cx="-430.5071"
     inkscape:cy="307.44498"
     inkscape:window-x="-8"
     inkscape:window-y="-8"
     inkscape:window-maximized="1"
     inkscape:current-layer="Layer_1" /><g
     id="g3"
     style="fill:#ffffff;fill-opacity:1;opacity:0.72235294"><g
       id="g5"
       style="fill:#ffffff;fill-opacity:1"><path
         d="M381.621,65.523h-53.943V54.004C327.678,24.226,303.451,0,273.673,0h-35.346c-29.778,0-54.005,24.226-54.005,54.004    v11.519h-53.943c-34.76,0-63.04,28.28-63.04,63.04v15.975H444.66v-15.976C444.66,93.803,416.38,65.523,381.621,65.523z     M297.261,65.523H214.74V54.004c0-13.005,10.581-23.587,23.588-23.587h35.346c13.006,0,23.588,10.581,23.588,23.587V65.523z"
         fill="#FFFFFF"
         id="path7"
         style="fill:#ffffff;fill-opacity:1" /></g></g><g
     id="g9"
     style="fill:#ffffff;fill-opacity:1;opacity:0.72235294"><g
       id="g11"
       style="fill:#ffffff;fill-opacity:1"><path
         d="M88.452,174.955v306.112c0,17.056,13.877,30.933,30.934,30.933h273.227c17.057,0,30.934-13.877,30.934-30.933V174.955    H88.452z M197.532,466.16h-30.417V220.795h30.417V466.16z M271.208,466.16h-30.417V220.795h30.417V466.16z M344.886,466.16    h-30.417V220.795h30.417V466.16z"
         fill="#FFFFFF"
         id="path13"
         style="fill:#ffffff;fill-opacity:1" /></g></g><g
     id="g15" /><g
     id="g17" /><g
     id="g19" /><g
     id="g21" /><g
     id="g23" /><g
     id="g25" /><g
     id="g27" /><g
     id="g29" /><g
     id="g31" /><g
     id="g33" /><g
     id="g35" /><g
     id="g37" /><g
     id="g39" /><g
     id="g41" /><g
     id="g43" /></svg>