<?xml version="1.0" encoding="UTF-8" standalone="no"?>
<!-- Created with Inkscape (http://www.inkscape.org/) -->

<svg
   xmlns:dc="http://purl.org/dc/elements/1.1/"
   xmlns:cc="http://creativecommons.org/ns#"
   xmlns:rdf="http://www.w3.org/1999/02/22-rdf-syntax-ns#"
   xmlns:svg="http://www.w3.org/2000/svg"
   xmlns="http://www.w3.org/2000/svg"
   xmlns:sodipodi="http://sodipodi.sourceforge.net/DTD/sodipodi-0.dtd"
   xmlns:inkscape="http://www.inkscape.org/namespaces/inkscape"
   width="210mm"
   height="210mm"
   viewBox="0 0 744.09447 744.09447"
   id="svg2"
   version="1.1"
   inkscape:version="0.91 r13725"
   sodipodi:docname="list.svg">
  <defs
     id="defs4" />
  <sodipodi:namedview
     id="base"
     pagecolor="#bebebe"
     bordercolor="#666666"
     borderopacity="1.0"
     inkscape:pageopacity="0.69803922"
     inkscape:pageshadow="2"
     inkscape:zoom="0.35355339"
     inkscape:cx="618.4256"
     inkscape:cy="604.67698"
     inkscape:document-units="px"
     inkscape:current-layer="layer1"
     showgrid="false"
     inkscape:window-width="1366"
     inkscape:window-height="705"
     inkscape:window-x="-8"
     inkscape:window-y="-8"
     inkscape:window-maximized="1" />
  <metadata
     id="metadata7">
    <rdf:RDF>
      <cc:Work
         rdf:about="">
        <dc:format>image/svg+xml</dc:format>
        <dc:type
           rdf:resource="http://purl.org/dc/dcmitype/StillImage" />
        <dc:title></dc:title>
      </cc:Work>
    </rdf:RDF>
  </metadata>
  <g
     inkscape:label="Camada 1"
     inkscape:groupmode="layer"
     id="layer1"
     transform="translate(0,-308.26772)">
    <g
       id="g4372"
       transform="matrix(0.76054128,0.76351064,-0.73880278,0.78597614,477.86884,-182.96526)">
      <rect
         ry="49.078697"
         y="563.02985"
         x="39.239098"
         height="147.23608"
         width="160.56601"
         id="rect4265"
         style="opacity:1;fill:none;fill-opacity:1;fill-rule:nonzero;stroke:#ffffff;stroke-width:8.47819424;stroke-linecap:round;stroke-linejoin:round;stroke-miterlimit:4;stroke-dasharray:none;stroke-opacity:1" />
      <text
         sodipodi:linespacing="110%"
         id="text4267"
         y="681.25732"
         x="82.370842"
         style="font-style:normal;font-variant:normal;font-weight:bold;font-stretch:normal;font-size:147.375px;line-height:110.00000238%;font-family:Calibri;-inkscape-font-specification:'Calibri, Bold';text-align:start;letter-spacing:0px;word-spacing:0px;writing-mode:lr-tb;text-anchor:start;fill:#ffffff;fill-opacity:1;stroke:none;stroke-width:1px;stroke-linecap:butt;stroke-linejoin:miter;stroke-opacity:1"
         xml:space="preserve"><tspan
           style="font-style:normal;font-variant:normal;font-weight:bold;font-stretch:normal;font-size:147.375px;line-height:110.00000238%;font-family:Calibri;-inkscape-font-specification:'Calibri, Bold';text-align:start;writing-mode:lr-tb;text-anchor:start;fill:#ffffff;fill-opacity:1"
           y="681.25732"
           x="82.370842"
           id="tspan4269"
           sodipodi:role="line">1</tspan></text>
      <rect
         ry="49.078697"
         y="563.02985"
         x="247.23911"
         height="147.23608"
         width="160.56601"
         id="rect4265-2"
         style="opacity:1;fill:none;fill-opacity:1;fill-rule:nonzero;stroke:#ffffff;stroke-width:8.47819424;stroke-linecap:round;stroke-linejoin:round;stroke-miterlimit:4;stroke-dasharray:none;stroke-opacity:1" />
      <text
         sodipodi:linespacing="110%"
         id="text4267-8"
         y="681.25732"
         x="290.37085"
         style="font-style:normal;font-variant:normal;font-weight:bold;font-stretch:normal;font-size:147.375px;line-height:110.00000238%;font-family:Calibri;-inkscape-font-specification:'Calibri, Bold';text-align:start;letter-spacing:0px;word-spacing:0px;writing-mode:lr-tb;text-anchor:start;fill:#ffffff;fill-opacity:1;stroke:none;stroke-width:1px;stroke-linecap:butt;stroke-linejoin:miter;stroke-opacity:1"
         xml:space="preserve"><tspan
           style="font-style:normal;font-variant:normal;font-weight:bold;font-stretch:normal;font-size:147.375px;line-height:110.00000238%;font-family:Calibri;-inkscape-font-specification:'Calibri, Bold';text-align:start;writing-mode:lr-tb;text-anchor:start;fill:#ffffff;fill-opacity:1"
           y="681.25732"
           x="290.37085"
           id="tspan4269-9"
           sodipodi:role="line">2</tspan></text>
      <rect
         ry="49.078697"
         y="563.02985"
         x="447.23911"
         height="147.23608"
         width="160.56601"
         id="rect4265-4"
         style="opacity:1;fill:none;fill-opacity:1;fill-rule:nonzero;stroke:#ffffff;stroke-width:8.47819424;stroke-linecap:round;stroke-linejoin:round;stroke-miterlimit:4;stroke-dasharray:none;stroke-opacity:1" />
      <text
         sodipodi:linespacing="110%"
         id="text4267-1"
         y="681.25732"
         x="490.37085"
         style="font-style:normal;font-variant:normal;font-weight:bold;font-stretch:normal;font-size:147.375px;line-height:110.00000238%;font-family:Calibri;-inkscape-font-specification:'Calibri, Bold';text-align:start;letter-spacing:0px;word-spacing:0px;writing-mode:lr-tb;text-anchor:start;fill:#ffffff;fill-opacity:1;stroke:none;stroke-width:1px;stroke-linecap:butt;stroke-linejoin:miter;stroke-opacity:1"
         xml:space="preserve"><tspan
           style="font-style:normal;font-variant:normal;font-weight:bold;font-stretch:normal;font-size:147.375px;line-height:110.00000238%;font-family:Calibri;-inkscape-font-specification:'Calibri, Bold';text-align:start;writing-mode:lr-tb;text-anchor:start;fill:#ffffff;fill-opacity:1"
           y="681.25732"
           x="490.37085"
           id="tspan4269-6"
           sodipodi:role="line">3</tspan></text>
      <path
         style="fill:#ffffff;fill-opacity:1"
         id="path9"
         d="m 286.25553,636.58354 c 0,-1.19917 -0.65177,-2.23765 -1.95095,-3.11424 l -55.83532,-37.642 c -1.29993,-0.87538 -2.83819,-1.31452 -4.61838,-1.31452 -1.7802,0 -3.31917,0.43914 -4.61945,1.31452 -1.29956,0.87659 -1.94989,1.91555 -1.94989,3.11423 l 0,19.92771 -45.98131,0 c -1.78022,0 -3.3199,0.43914 -4.61982,1.31452 -1.29993,0.87683 -1.94952,1.91507 -1.94952,3.11448 l 0,26.57035 c 0,1.19941 0.64959,2.23765 1.94988,3.11375 1.301,0.8749 2.84069,1.31525 4.61981,1.31525 l 45.98096,0 0,19.92746 c 0,1.19844 0.65033,2.23765 1.94989,3.11351 1.30171,0.87659 2.84069,1.31549 4.61945,1.31549 1.77911,0 3.31845,-0.4389 4.61838,-1.31549 l 55.83532,-37.64031 c 1.29918,-0.87756 1.95095,-1.91604 1.95095,-3.11471 z"
         inkscape:connector-curvature="0" />
      <path
         style="fill:#ffffff;fill-opacity:1"
         id="path9-2"
         d="m 500.25553,636.58354 c 0,-1.19917 -0.65177,-2.23765 -1.95095,-3.11424 l -55.83532,-37.642 c -1.29993,-0.87538 -2.83819,-1.31452 -4.61838,-1.31452 -1.7802,0 -3.31917,0.43914 -4.61945,1.31452 -1.29956,0.87659 -1.94989,1.91555 -1.94989,3.11423 l 0,19.92771 -45.98131,0 c -1.78022,0 -3.3199,0.43914 -4.61982,1.31452 -1.29993,0.87683 -1.94952,1.91507 -1.94952,3.11448 l 0,26.57035 c 0,1.19941 0.64959,2.23765 1.94988,3.11375 1.301,0.8749 2.84069,1.31525 4.61981,1.31525 l 45.98096,0 0,19.92746 c 0,1.19844 0.65033,2.23765 1.94989,3.11351 1.30171,0.87659 2.84069,1.31549 4.61945,1.31549 1.77911,0 3.31845,-0.4389 4.61838,-1.31549 l 55.83532,-37.64031 c 1.29918,-0.87756 1.95095,-1.91604 1.95095,-3.11471 z"
         inkscape:connector-curvature="0" />
      <path
         style="fill:#ffffff;fill-opacity:1"
         id="path9-2-0"
         d="m 694.32999,639.41197 c 0,-1.19917 -0.65177,-2.23765 -1.95095,-3.11424 l -55.83532,-37.642 c -1.29993,-0.87538 -2.83819,-1.31452 -4.61838,-1.31452 -1.7802,0 -3.31917,0.43914 -4.61945,1.31452 -1.29956,0.87659 -1.94989,1.91555 -1.94989,3.11423 l 0,19.92771 -45.98131,0 c -1.78022,0 -3.3199,0.43914 -4.61982,1.31452 -1.29993,0.87683 -1.94952,1.91507 -1.94952,3.11448 l 0,26.57035 c 0,1.19941 0.64959,2.23765 1.94988,3.11375 1.301,0.8749 2.84069,1.31525 4.61981,1.31525 l 45.98096,0 0,19.92746 c 0,1.19844 0.65033,2.23765 1.94989,3.11351 1.30171,0.87659 2.84069,1.31549 4.61945,1.31549 1.77911,0 3.31845,-0.4389 4.61838,-1.31549 l 55.83532,-37.64031 c 1.29918,-0.87756 1.95095,-1.91604 1.95095,-3.11471 z"
         inkscape:connector-curvature="0" />
      <text
         sodipodi:linespacing="110%"
         id="text4267-1-3"
         y="681.7276"
         x="693.90887"
         style="font-style:normal;font-variant:normal;font-weight:bold;font-stretch:normal;font-size:147.375px;line-height:110.00000238%;font-family:Calibri;-inkscape-font-specification:'Calibri, Bold';text-align:start;letter-spacing:0px;word-spacing:0px;writing-mode:lr-tb;text-anchor:start;fill:#ffffff;fill-opacity:1;stroke:none;stroke-width:1px;stroke-linecap:butt;stroke-linejoin:miter;stroke-opacity:1"
         xml:space="preserve"><tspan
           style="font-style:normal;font-variant:normal;font-weight:bold;font-stretch:normal;font-size:147.375px;line-height:110.00000238%;font-family:Calibri;-inkscape-font-specification:'Calibri, Bold';text-align:start;writing-mode:lr-tb;text-anchor:start;fill:#ffffff;fill-opacity:1"
           y="681.7276"
           x="693.90887"
           id="tspan4269-6-7"
           sodipodi:role="line">null</tspan></text>
    </g>
  </g>
</svg>
