<?xml version="1.0" encoding="UTF-8" standalone="no"?>
<!-- Created with Inkscape (http://www.inkscape.org/) -->

<svg
   xmlns:dc="http://purl.org/dc/elements/1.1/"
   xmlns:cc="http://creativecommons.org/ns#"
   xmlns:rdf="http://www.w3.org/1999/02/22-rdf-syntax-ns#"
   xmlns:svg="http://www.w3.org/2000/svg"
   xmlns="http://www.w3.org/2000/svg"
   xmlns:sodipodi="http://sodipodi.sourceforge.net/DTD/sodipodi-0.dtd"
   xmlns:inkscape="http://www.inkscape.org/namespaces/inkscape"
   width="70mm"
   height="70mm"
   viewBox="0 0 70 70"
   version="1.1"
   id="svg1322"
   sodipodi:docname="minimize_tree.svg"
   inkscape:version="0.92.2 (5c3e80d, 2017-08-06)">
  <defs
     id="defs1316" />
  <sodipodi:namedview
     id="base"
     pagecolor="#ffffff"
     bordercolor="#666666"
     borderopacity="1.0"
     inkscape:pageopacity="0.0"
     inkscape:pageshadow="2"
     inkscape:zoom="0.98994949"
     inkscape:cx="47.155538"
     inkscape:cy="106.45172"
     inkscape:document-units="mm"
     inkscape:current-layer="layer1"
     showgrid="false"
     showguides="false"
     inkscape:window-width="1366"
     inkscape:window-height="705"
     inkscape:window-x="-8"
     inkscape:window-y="-8"
     inkscape:window-maximized="1" />
  <metadata
     id="metadata1319">
    <rdf:RDF>
      <cc:Work
         rdf:about="">
        <dc:format>image/svg+xml</dc:format>
        <dc:type
           rdf:resource="http://purl.org/dc/dcmitype/StillImage" />
        <dc:title></dc:title>
      </cc:Work>
    </rdf:RDF>
  </metadata>
  <g
     inkscape:label="Camada 1"
     inkscape:groupmode="layer"
     id="layer1"
     transform="translate(0,-227)">
    <g
       id="g941"
       transform="matrix(2.0663128,0,0,2.0663128,5.8697791,232.55272)">
      <g
         id="g880">
        <g
           id="c115_arrows">
          <path
             id="path870"
             d="m 16.8175,24.692749 c 0,0.868 0.665,1.57 1.491,1.57 0.819,-0.002 1.492,-0.702 1.492,-1.57 v -3.25 l 6.018,6.021 c 0.582,0.583 1.524,0.583 2.106,0 0.582,-0.582 0.582,-1.527 0,-2.109 l -5.989,-5.987 h 3.235 c 0.881,-0.002 1.591,-0.669 1.591,-1.491 0,-0.824 -0.71,-1.49 -1.591,-1.49 h -6.761 c -0.881,0 -1.59,0.665 -1.593,1.49 0.003,0.022 0.006,0.039 0.009,0.061 -0.003,0.028 -0.009,0.058 -0.009,0.087 v 6.668 z"
             inkscape:connector-curvature="0" />
          <path
             id="path872"
             d="m 2.545,27.464874 6.015,-6.021 v 3.25 c 0,0.868 0.672,1.568 1.493,1.57 0.824,0 1.49,-0.702 1.49,-1.57 l 0.002,-6.669 c 0,-0.029 -0.008,-0.059 -0.01,-0.087 0.002,-0.021 0.006,-0.038 0.008,-0.061 -0.002,-0.825 -0.712,-1.49 -1.592,-1.49 H 3.189 c -0.879,0 -1.59,0.666 -1.59,1.49 0,0.822 0.711,1.489 1.59,1.491 h 3.235 l -5.989,5.987 c -0.58,0.582 -0.58,1.527 0,2.109 0.583,0.584 1.526,0.584 2.11,10e-4 z"
             inkscape:connector-curvature="0" />
          <path
             id="path874"
             d="m 27.906937,2.9870632 -6.017,6.018 h 3.25 c 0.865,0 1.565,0.673 1.568,1.4919998 0,0.826 -0.703,1.491 -1.568,1.491 h -6.671 c -0.029,0 -0.059,-0.006 -0.085,-0.009 -0.021,0.003 -0.041,0.006 -0.062,0.009 -0.826,-0.003 -1.491,-0.712 -1.491,-1.592 V 3.6350632 c 0,-0.881 0.665,-1.591001 1.491,-1.591001 0.821,0 1.49,0.710001 1.492,1.591001 v 3.235 l 5.987,-5.98900104 c 0.581,-0.582 1.524,-0.582 2.105,0 0.586,0.58200004 0.586,1.52400004 10e-4,2.10600104 z"
             inkscape:connector-curvature="0" />
          <path
             id="path876"
             d="M 6.424,8.990749 H 3.19 c -0.879,0.002 -1.59,0.671 -1.59,1.492 0,0.826 0.711,1.491 1.59,1.491 h 6.761 c 0.88,0 1.59,-0.665 1.592,-1.491 -0.002,-0.021 -0.006,-0.041 -0.008,-0.062 0.002,-0.026 0.01,-0.055 0.01,-0.085 l -0.002,-6.672 c 0,-0.865 -0.666,-1.568 -1.49,-1.568 -0.821,0.003 -1.493,0.703 -1.493,1.568 v 3.25 L 2.545,0.89774895 c -0.584,-0.585 -1.527,-0.585 -2.11,0 -0.58,0.58100005 -0.58,1.52400005 0,2.10500005 z"
             inkscape:connector-curvature="0" />
        </g>
        <g
           id="Capa_1_253_" />
      </g>
      <g
         id="g882" />
      <g
         id="g884" />
      <g
         id="g886" />
      <g
         id="g888" />
      <g
         id="g890" />
      <g
         id="g892" />
      <g
         id="g894" />
      <g
         id="g896" />
      <g
         id="g898" />
      <g
         id="g900" />
      <g
         id="g902" />
      <g
         id="g904" />
      <g
         id="g906" />
      <g
         id="g908" />
      <g
         id="g910" />
    </g>
  </g>
</svg>
