<?xml version="1.0" encoding="UTF-8" standalone="no"?>
<!-- Generator: Adobe Illustrator 17.1.0, SVG Export Plug-In . SVG Version: 6.00 Build 0)  -->

<svg
   xmlns:dc="http://purl.org/dc/elements/1.1/"
   xmlns:cc="http://creativecommons.org/ns#"
   xmlns:rdf="http://www.w3.org/1999/02/22-rdf-syntax-ns#"
   xmlns:svg="http://www.w3.org/2000/svg"
   xmlns="http://www.w3.org/2000/svg"
   xmlns:sodipodi="http://sodipodi.sourceforge.net/DTD/sodipodi-0.dtd"
   xmlns:inkscape="http://www.inkscape.org/namespaces/inkscape"
   version="1.1"
   id="Capa_1"
   x="0px"
   y="0px"
   viewBox="0 0 455 455"
   style="enable-background:new 0 0 455 455;"
   xml:space="preserve"
   width="512px"
   height="512px"
   inkscape:version="0.91 r13725"
   sodipodi:docname="multiple-shots-blue.svg"><metadata
     id="metadata4770"><rdf:RDF><cc:Work
         rdf:about=""><dc:format>image/svg+xml</dc:format><dc:type
           rdf:resource="http://purl.org/dc/dcmitype/StillImage" /></cc:Work></rdf:RDF></metadata><defs
     id="defs4768" /><sodipodi:namedview
     pagecolor="#ffffff"
     bordercolor="#666666"
     borderopacity="1"
     objecttolerance="10"
     gridtolerance="10"
     guidetolerance="10"
     inkscape:pageopacity="0"
     inkscape:pageshadow="2"
     inkscape:window-width="863"
     inkscape:window-height="480"
     id="namedview4766"
     showgrid="false"
     inkscape:zoom="0.4609375"
     inkscape:cx="256"
     inkscape:cy="256"
     inkscape:window-x="0"
     inkscape:window-y="0"
     inkscape:window-maximized="0"
     inkscape:current-layer="Capa_1" /><g
     id="g4728"
     style="opacity:0.98;fill:#ffffff;fill-opacity:1"><path
       d="M447.5,149.251h-20.926c-4.142,0-7.5,3.357-7.5,7.5s3.358,7.5,7.5,7.5H440V391H116.852v-12.626c0-4.143-3.358-7.5-7.5-7.5   s-7.5,3.357-7.5,7.5V398.5c0,4.143,3.358,7.5,7.5,7.5H447.5c4.142,0,7.5-3.357,7.5-7.5V156.751   C455,152.608,451.642,149.251,447.5,149.251z"
       fill="#006DF0"
       id="path4730"
       style="fill:#ffffff;fill-opacity:1" /><path
       d="M404.074,348.374V106.626c0-4.143-3.358-7.5-7.5-7.5h-20.926c-4.142,0-7.5,3.357-7.5,7.5s3.358,7.5,7.5,7.5h13.426v226.748   H65.926v-12.625c0-4.143-3.358-7.5-7.5-7.5s-7.5,3.357-7.5,7.5v20.125c0,4.143,3.358,7.5,7.5,7.5h338.148   C400.716,355.874,404.074,352.517,404.074,348.374z"
       fill="#006DF0"
       id="path4732"
       style="fill:#ffffff;fill-opacity:1" /><path
       d="M353.148,298.249V56.5c0-4.143-3.358-7.5-7.5-7.5H7.5C3.358,49,0,52.357,0,56.5v241.749c0,4.143,3.358,7.5,7.5,7.5h338.148   C349.79,305.749,353.148,302.392,353.148,298.249z M338.148,290.749H15V64h323.148V290.749z"
       fill="#006DF0"
       id="path4734"
       style="fill:#ffffff;fill-opacity:1" /></g><g
     id="g4736" /><g
     id="g4738" /><g
     id="g4740" /><g
     id="g4742" /><g
     id="g4744" /><g
     id="g4746" /><g
     id="g4748" /><g
     id="g4750" /><g
     id="g4752" /><g
     id="g4754" /><g
     id="g4756" /><g
     id="g4758" /><g
     id="g4760" /><g
     id="g4762" /><g
     id="g4764" /></svg>