<?xml version="1.0" encoding="UTF-8" standalone="no"?>
<!-- Generator: Adobe Illustrator 19.0.0, SVG Export Plug-In . SVG Version: 6.00 Build 0)  -->

<svg
   xmlns:dc="http://purl.org/dc/elements/1.1/"
   xmlns:cc="http://creativecommons.org/ns#"
   xmlns:rdf="http://www.w3.org/1999/02/22-rdf-syntax-ns#"
   xmlns:svg="http://www.w3.org/2000/svg"
   xmlns="http://www.w3.org/2000/svg"
   xmlns:sodipodi="http://sodipodi.sourceforge.net/DTD/sodipodi-0.dtd"
   xmlns:inkscape="http://www.inkscape.org/namespaces/inkscape"
   version="1.1"
   id="Layer_1"
   x="0px"
   y="0px"
   viewBox="0 0 489.4 489.4"
   style="enable-background:new 0 0 489.4 489.4;"
   xml:space="preserve"
   inkscape:version="0.91 r13725"
   sodipodi:docname="networking-balanced.svg"><metadata
     id="metadata46"><rdf:RDF><cc:Work
         rdf:about=""><dc:format>image/svg+xml</dc:format><dc:type
           rdf:resource="http://purl.org/dc/dcmitype/StillImage" /><dc:title /></cc:Work></rdf:RDF></metadata><defs
     id="defs44" /><sodipodi:namedview
     pagecolor="#939393"
     bordercolor="#242424"
     borderopacity="1"
     objecttolerance="10"
     gridtolerance="10"
     guidetolerance="10"
     inkscape:pageopacity="0.61176471"
     inkscape:pageshadow="2"
     inkscape:window-width="1366"
     inkscape:window-height="705"
     id="namedview42"
     showgrid="false"
     inkscape:zoom="1.9288926"
     inkscape:cx="180.99598"
     inkscape:cy="223.19627"
     inkscape:window-x="-8"
     inkscape:window-y="-8"
     inkscape:window-maximized="1"
     inkscape:current-layer="g3" /><g
     id="g3"
     style="fill:#ffffff;fill-opacity:1"><g
       id="g5"
       style="fill:#ffffff;fill-opacity:1"><circle
         id="XMLID_496_"
         style="fill:#ffffff;fill-opacity:1"
         cx="140.8"
         cy="242.3"
         r="27.7" /><circle
         id="XMLID_491_"
         style="fill:#ffffff;fill-opacity:1"
         cx="348.6"
         cy="242.3"
         r="27.7" /><path
         style="fill:#ffffff;fill-opacity:1"
         d="m 36.8,419.3 c 20.3,0 36.8,-16.5 36.8,-36.8 0,-16.9 -11.5,-31.2 -27.1,-35.4 l 0,-27.9 85.5,0 0,27.6 c -16.1,3.9 -28.1,18.4 -28.1,35.7 0,20.3 16.5,36.8 36.8,36.8 20.3,0 36.8,-16.5 36.8,-36.8 0,-17 -11.7,-31.4 -27.4,-35.5 l 0,-69.1 c 15.7,-4.2 27.4,-18.5 27.4,-35.5 0,-17 -11.7,-31.4 -27.4,-35.5 l 0,-24 85.5,0 c 18.2,-0.2 0,0 18.2,-0.2 l 85.5,0 0,24 c -15.7,4.2 -27.4,18.5 -27.4,35.5 0,17 11.7,31.4 27.4,35.5 l 0,23.2 -94.6,0 c -5,0 -9.1,4.1 -9.1,9.1 l 0,36.8 c -15.9,4.1 -27.7,18.5 -27.7,35.6 0,20.3 16.5,36.8 36.8,36.8 20.3,0 36.8,-16.5 36.8,-36.8 0,-17.2 -11.8,-31.6 -27.7,-35.6 l 0,-27.7 85.5,0 0,27.8 c -15.7,4.2 -27.4,18.5 -27.4,35.5 0,20.3 16.5,36.8 36.8,36.8 20.3,0 36.8,-16.5 36.8,-36.8 0,-17.3 -12,-31.8 -28.1,-35.7 l 0,-27.6 85.5,0 0,27.9 c -15.6,4.3 -27.1,18.5 -27.1,35.4 0,20.3 16.5,36.8 36.8,36.8 20.3,0 36.8,-16.5 36.8,-36.8 0,-17.4 -12.1,-32 -28.4,-35.8 l 0,-36.6 c 0,-5 -4.1,-9.1 -9.1,-9.1 l -94.5,0 0,-23.1 c 16.1,-3.9 28.1,-18.4 28.1,-35.7 0,-17.3 -12,-31.8 -28.1,-35.7 l 0,-32.7 c 0,-5 -4.1,-9.1 -9.1,-9.1 l -94.5,0 0,-22.1 c 15.9,-4.1 27.7,-18.5 27.7,-35.6 0,-20.3 -16.5,-36.8 -36.8,-36.8 -20.3,0 -36.8,16.5 -36.8,36.8 0,17.2 11.8,31.6 27.7,35.6 l 0,22.1 -94.5,0 c -5,0 -9.1,4.1 -9.1,9.1 l 0,32.9 c -16.1,3.9 -28.1,18.4 -28.1,35.7 0,17.3 12,31.8 28.1,35.7 l 0,23.1 -94.5,0 c -5,0 -9.1,4.1 -9.1,9.1 l 0,36.5 C 12.2,350.5 0,365.1 0,382.5 c 0,20.3 16.5,36.8 36.8,36.8 z"
         id="path10"
         inkscape:connector-curvature="0"
         sodipodi:nodetypes="ssccccsssccsccccccsccsscsssccccsssccccssscssccscssccsssccsscsccsscss" /></g></g><g
     id="g12" /><g
     id="g14" /><g
     id="g16" /><g
     id="g18" /><g
     id="g20" /><g
     id="g22" /><g
     id="g24" /><g
     id="g26" /><g
     id="g28" /><g
     id="g30" /><g
     id="g32" /><g
     id="g34" /><g
     id="g36" /><g
     id="g38" /><g
     id="g40" /></svg>