<?xml version="1.0" encoding="UTF-8" standalone="no"?>
<!-- Generator: Adobe Illustrator 16.0.0, SVG Export Plug-In . SVG Version: 6.00 Build 0)  -->

<svg
   xmlns:dc="http://purl.org/dc/elements/1.1/"
   xmlns:cc="http://creativecommons.org/ns#"
   xmlns:rdf="http://www.w3.org/1999/02/22-rdf-syntax-ns#"
   xmlns:svg="http://www.w3.org/2000/svg"
   xmlns="http://www.w3.org/2000/svg"
   xmlns:sodipodi="http://sodipodi.sourceforge.net/DTD/sodipodi-0.dtd"
   xmlns:inkscape="http://www.inkscape.org/namespaces/inkscape"
   version="1.1"
   id="Capa_1"
   x="0px"
   y="0px"
   width="284.929px"
   height="284.929px"
   viewBox="0 0 284.929 284.929"
   style="enable-background:new 0 0 284.929 284.929;"
   xml:space="preserve"
   inkscape:version="0.91 r13725"
   sodipodi:docname="thin-arrowheads-pointing-right.svg"><metadata
     id="metadata45"><rdf:RDF><cc:Work
         rdf:about=""><dc:format>image/svg+xml</dc:format><dc:type
           rdf:resource="http://purl.org/dc/dcmitype/StillImage" /><dc:title></dc:title></cc:Work></rdf:RDF></metadata><defs
     id="defs43" /><sodipodi:namedview
     pagecolor="#ffffff"
     bordercolor="#666666"
     borderopacity="1"
     objecttolerance="10"
     gridtolerance="10"
     guidetolerance="10"
     inkscape:pageopacity="0"
     inkscape:pageshadow="2"
     inkscape:window-width="1366"
     inkscape:window-height="705"
     id="namedview41"
     showgrid="false"
     inkscape:zoom="0.82827656"
     inkscape:cx="142.46449"
     inkscape:cy="142.46449"
     inkscape:window-x="-8"
     inkscape:window-y="-8"
     inkscape:window-maximized="1"
     inkscape:current-layer="Capa_1" /><g
     id="g3"
     transform="matrix(0,-1,1,0,10e-4,284.928)"><g
       id="g5"><path
         d="m 135.899,167.877 c 1.902,1.902 4.093,2.851 6.567,2.851 2.474,0 4.661,-0.948 6.562,-2.851 L 282.082,34.829 c 1.902,-1.903 2.847,-4.093 2.847,-6.567 0,-2.474 -0.951,-4.665 -2.847,-6.567 L 267.808,7.417 c -1.902,-1.903 -4.093,-2.853 -6.57,-2.853 -2.471,0 -4.661,0.95 -6.563,2.853 L 142.466,119.622 30.262,7.417 C 28.359,5.514 26.169,4.564 23.695,4.564 c -2.475,0 -4.665,0.95 -6.567,2.853 L 2.856,21.695 C 0.95,23.597 0,25.784 0,28.262 c 0,2.478 0.953,4.665 2.856,6.567 l 133.043,133.048 z"
         id="path7"
         inkscape:connector-curvature="0" /><path
         d="m 267.808,117.053 c -1.902,-1.903 -4.093,-2.853 -6.57,-2.853 -2.471,0 -4.661,0.95 -6.563,2.853 L 142.466,229.257 30.262,117.05 c -1.903,-1.903 -4.093,-2.853 -6.567,-2.853 -2.475,0 -4.665,0.95 -6.567,2.853 L 2.856,131.327 C 0.95,133.23 0,135.42 0,137.893 c 0,2.474 0.953,4.665 2.856,6.57 l 133.043,133.046 c 1.902,1.903 4.093,2.854 6.567,2.854 2.474,0 4.661,-0.951 6.562,-2.854 L 282.082,144.463 c 1.902,-1.903 2.847,-4.093 2.847,-6.565 0,-2.474 -0.951,-4.661 -2.847,-6.567 l -14.274,-14.278 z"
         id="path9"
         inkscape:connector-curvature="0" /></g></g><g
     id="g11" /><g
     id="g13" /><g
     id="g15" /><g
     id="g17" /><g
     id="g19" /><g
     id="g21" /><g
     id="g23" /><g
     id="g25" /><g
     id="g27" /><g
     id="g29" /><g
     id="g31" /><g
     id="g33" /><g
     id="g35" /><g
     id="g37" /><g
     id="g39" /></svg>