<?xml version="1.0" encoding="UTF-8" standalone="no"?>
<!-- Generator: Adobe Illustrator 16.0.0, SVG Export Plug-In . SVG Version: 6.00 Build 0)  -->

<svg
   xmlns:dc="http://purl.org/dc/elements/1.1/"
   xmlns:cc="http://creativecommons.org/ns#"
   xmlns:rdf="http://www.w3.org/1999/02/22-rdf-syntax-ns#"
   xmlns:svg="http://www.w3.org/2000/svg"
   xmlns="http://www.w3.org/2000/svg"
   xmlns:sodipodi="http://sodipodi.sourceforge.net/DTD/sodipodi-0.dtd"
   xmlns:inkscape="http://www.inkscape.org/namespaces/inkscape"
   version="1.1"
   id="Capa_1"
   x="0px"
   y="0px"
   width="512px"
   height="512px"
   viewBox="0 0 956.801 956.801"
   style="enable-background:new 0 0 956.801 956.801;"
   xml:space="preserve"
   inkscape:version="0.91 r13725"
   sodipodi:docname="upload-to-cloud.svg"><metadata
     id="metadata43"><rdf:RDF><cc:Work
         rdf:about=""><dc:format>image/svg+xml</dc:format><dc:type
           rdf:resource="http://purl.org/dc/dcmitype/StillImage" /></cc:Work></rdf:RDF></metadata><defs
     id="defs41" /><sodipodi:namedview
     pagecolor="#ffffff"
     bordercolor="#666666"
     borderopacity="1"
     objecttolerance="10"
     gridtolerance="10"
     guidetolerance="10"
     inkscape:pageopacity="0"
     inkscape:pageshadow="2"
     inkscape:window-width="863"
     inkscape:window-height="480"
     id="namedview39"
     showgrid="false"
     inkscape:zoom="0.4609375"
     inkscape:cx="256"
     inkscape:cy="256"
     inkscape:window-x="0"
     inkscape:window-y="0"
     inkscape:window-maximized="0"
     inkscape:current-layer="Capa_1" /><g
     id="g3"
     style="fill:#ffffff;fill-opacity:0.64220184"><path
       d="M782.699,226.95c-0.199,0-0.299,0-0.5,0c-7.699-121.7-108.898-218-232.5-218c-114.099,0-209,82-229.099,190.2   c-2.601-0.1-5.3-0.2-7.9-0.2c-85,0-156.7,56.3-180.1,133.6c-3.6-0.3-7.3-0.5-11-0.5C54.5,332.05,0,386.45,0,453.65   c0,67.1,54.4,121.6,121.6,121.6c1,0,184.399,0,184.399,0L469.8,388.65c18-20.5,44.1-32.3,71.399-32.3c27.301,0,53.4,11.8,71.4,32.3   L776.4,575.25h6.299c96.201,0,174.102-78,174.102-174.1C956.801,305.05,878.9,226.95,782.699,226.95z"
       fill="#FFFFFF"
       id="path5"
       style="fill:#ffffff;fill-opacity:0.64220184" /><path
       d="M432.7,947.851h217c27.602,0,50-22.4,50-50v-141.2h65.602c43,0,65.898-50.7,37.6-83l-224.1-255.4   c-10-11.3-23.801-17-37.602-17c-13.799,0-27.6,5.7-37.6,17l-224.1,255.4c-28.4,32.3-5.4,83,37.6,83h65.6v141.2   C382.7,925.45,405,947.851,432.7,947.851z"
       fill="#FFFFFF"
       id="path7"
       style="fill:#ffffff;fill-opacity:0.64220184" /></g><g
     id="g9" /><g
     id="g11" /><g
     id="g13" /><g
     id="g15" /><g
     id="g17" /><g
     id="g19" /><g
     id="g21" /><g
     id="g23" /><g
     id="g25" /><g
     id="g27" /><g
     id="g29" /><g
     id="g31" /><g
     id="g33" /><g
     id="g35" /><g
     id="g37" /></svg>