<?xml version="1.0" encoding="UTF-8" standalone="no"?>
<!-- Generator: Adobe Illustrator 16.0.0, SVG Export Plug-In . SVG Version: 6.00 Build 0)  -->

<svg
   xmlns:dc="http://purl.org/dc/elements/1.1/"
   xmlns:cc="http://creativecommons.org/ns#"
   xmlns:rdf="http://www.w3.org/1999/02/22-rdf-syntax-ns#"
   xmlns:svg="http://www.w3.org/2000/svg"
   xmlns="http://www.w3.org/2000/svg"
   xmlns:sodipodi="http://sodipodi.sourceforge.net/DTD/sodipodi-0.dtd"
   xmlns:inkscape="http://www.inkscape.org/namespaces/inkscape"
   version="1.1"
   id="Capa_1"
   x="0px"
   y="0px"
   width="511.626px"
   height="511.627px"
   viewBox="0 0 511.626 511.627"
   style="enable-background:new 0 0 511.626 511.627;"
   xml:space="preserve"
   sodipodi:docname="view.svg"
   inkscape:version="0.92.2 (5c3e80d, 2017-08-06)"><metadata
     id="metadata47"><rdf:RDF><cc:Work
         rdf:about=""><dc:format>image/svg+xml</dc:format><dc:type
           rdf:resource="http://purl.org/dc/dcmitype/StillImage" /></cc:Work></rdf:RDF></metadata><defs
     id="defs45" /><sodipodi:namedview
     pagecolor="#ffffff"
     bordercolor="#666666"
     borderopacity="1"
     objecttolerance="10"
     gridtolerance="10"
     guidetolerance="10"
     inkscape:pageopacity="0"
     inkscape:pageshadow="2"
     inkscape:window-width="1366"
     inkscape:window-height="705"
     id="namedview43"
     showgrid="false"
     inkscape:zoom="0.46127353"
     inkscape:cx="255.813"
     inkscape:cy="255.81351"
     inkscape:window-x="-8"
     inkscape:window-y="-8"
     inkscape:window-maximized="1"
     inkscape:current-layer="Capa_1" /><g
     id="g10"
     style="fill:#ffffff"><g
       id="g8"
       style="fill:#ffffff"><path
         d="M361.161,291.652c15.037-21.796,22.56-45.922,22.56-72.375c0-7.422-0.76-15.417-2.286-23.984l-79.938,143.321    C326.235,329.101,346.125,313.438,361.161,291.652z"
         id="path2"
         style="fill:#ffffff" /><path
         d="M372.872,94.221c0.191-0.378,0.28-1.235,0.28-2.568c0-3.237-1.522-5.802-4.571-7.715c-0.568-0.38-2.423-1.475-5.568-3.287    c-3.138-1.805-6.14-3.567-8.989-5.282c-2.854-1.713-5.989-3.472-9.422-5.28c-3.426-1.809-6.375-3.284-8.846-4.427    c-2.479-1.141-4.189-1.713-5.141-1.713c-3.426,0-6.092,1.525-7.994,4.569l-15.413,27.696c-17.316-3.234-34.451-4.854-51.391-4.854    c-51.201,0-98.404,12.946-141.613,38.831C70.998,156.08,34.836,191.385,5.711,236.114C1.903,242.019,0,248.586,0,255.819    c0,7.231,1.903,13.801,5.711,19.698c16.748,26.073,36.592,49.396,59.528,69.949c22.936,20.561,48.011,37.018,75.229,49.396    c-8.375,14.273-12.562,22.556-12.562,24.842c0,3.425,1.524,6.088,4.57,7.99c23.219,13.329,35.97,19.985,38.256,19.985    c3.422,0,6.089-1.529,7.992-4.575l13.99-25.406c20.177-35.967,50.248-89.931,90.222-161.878    C322.908,183.871,352.886,130.005,372.872,94.221z M158.456,362.885C108.97,340.616,68.33,304.93,36.547,255.822    c28.931-44.921,65.19-78.518,108.777-100.783c-11.61,19.792-17.417,41.206-17.417,64.237c0,20.365,4.661,39.68,13.99,57.955    c9.327,18.274,22.27,33.4,38.83,45.392L158.456,362.885z M265.525,155.887c-2.662,2.667-5.906,3.999-9.712,3.999    c-16.368,0-30.361,5.808-41.971,17.416c-11.613,11.615-17.416,25.603-17.416,41.971c0,3.811-1.336,7.044-3.999,9.71    c-2.668,2.667-5.902,3.999-9.707,3.999c-3.809,0-7.045-1.334-9.71-3.999c-2.667-2.666-3.999-5.903-3.999-9.71    c0-23.79,8.52-44.206,25.553-61.242c17.034-17.034,37.447-25.553,61.241-25.553c3.806,0,7.043,1.336,9.713,3.999    c2.662,2.664,3.996,5.901,3.996,9.707C269.515,149.992,268.181,153.228,265.525,155.887z"
         id="path4"
         style="fill:#ffffff" /><path
         d="M505.916,236.114c-10.853-18.08-24.603-35.594-41.255-52.534c-16.646-16.939-34.022-31.496-52.105-43.68l-17.987,31.977    c31.785,21.888,58.625,49.87,80.51,83.939c-23.024,35.782-51.723,65-86.07,87.648c-34.358,22.661-71.712,35.693-112.065,39.115    l-21.129,37.688c42.257,0,82.18-9.038,119.769-27.121c37.59-18.076,70.668-43.488,99.216-76.225    c13.322-15.421,23.695-29.219,31.121-41.401c3.806-6.476,5.708-13.046,5.708-19.702    C511.626,249.157,509.724,242.59,505.916,236.114z"
         id="path6"
         style="fill:#ffffff" /></g></g><g
     id="g12" /><g
     id="g14" /><g
     id="g16" /><g
     id="g18" /><g
     id="g20" /><g
     id="g22" /><g
     id="g24" /><g
     id="g26" /><g
     id="g28" /><g
     id="g30" /><g
     id="g32" /><g
     id="g34" /><g
     id="g36" /><g
     id="g38" /><g
     id="g40" /></svg>