<?xml version="1.0" encoding="utf-8"?>
<!-- Generator: Adobe Illustrator 22.0.1, SVG Export Plug-In . SVG Version: 6.00 Build 0)  -->
<svg version="1.1" id="Capa_1" xmlns="http://www.w3.org/2000/svg" xmlns:xlink="http://www.w3.org/1999/xlink" x="0px" y="0px"
	 viewBox="0 0 391 391" style="enable-background:new 0 0 391 391;" xml:space="preserve">
<style type="text/css">
	.st0{fill:#6B6B6B;stroke:#6B6B6B;stroke-width:16;stroke-miterlimit:10;}
	.st1{fill:#6B6B6B;stroke:#6B6B6B;stroke-width:20;stroke-miterlimit:10;}
	.st2{fill:#6B6B6B;}
</style>
<g>
	<g>
		<path class="st0" d="M379.6,355H11.7V19h367.9V355z M22.7,342.2h345.9V31.8H22.7V342.2z"/>
	</g>
	<g>
		<path class="st1" d="M184.6,92.1c39.5,0,90.2,0,140.5,0c2.9,0,2.9,11.7,0,11.7c-33.7,0-85,0-140.5,0
			C181.7,103.9,181.7,92.1,184.6,92.1z"/>
	</g>
	<g>
		<path class="st1" d="M184.6,152.1c39.5,0,90.2,0,140.5,0c2.9,0,2.9,11.7,0,11.7c-33.7,0-85,0-140.5,0
			C181.7,163.9,181.7,152.1,184.6,152.1z"/>
	</g>
	<g>
		<path class="st1" d="M184.6,212.1c39.5,0,90.2,0,140.5,0c2.9,0,2.9,11.7,0,11.7c-33.7,0-85,0-140.5,0
			C181.7,223.9,181.7,212.1,184.6,212.1z"/>
	</g>
	<g>
		<path class="st1" d="M184.6,272.1c39.5,0,90.2,0,140.5,0c2.9,0,2.9,11.7,0,11.7c-33.7,0-85,0-140.5,0
			C181.7,283.9,181.7,272.1,184.6,272.1z"/>
	</g>
	<g>
		<g>
			<path class="st2" d="M121.7,84.4c14.2,0,21.3,9.7,21.3,20.8c0,13.9-12.4,26.7-28.5,26.7c-13.5,0-21.3-8-21-21.1
				C93.6,99.7,103,84.4,121.7,84.4z M77.9,296.9c-11.2,0-19.5-6.9-11.6-37.4l12.9-54.1c2.2-8.7,2.6-12.1,0-12.1
				c-3.4,0-18,6-26.6,11.9l-5.6-9.4c27.3-23.2,58.8-36.8,72.3-36.8c11.2,0,13.1,13.5,7.5,34.3L112,250.1c-2.6,10-1.5,13.5,1.1,13.5
				c3.4,0,14.4-4.2,25.3-12.8l6.4,8.7C118.1,286.5,89.1,296.9,77.9,296.9z"/>
		</g>
	</g>
</g>
</svg>
