<?xml version="1.0" encoding="utf-8"?>
<!-- Generator: Adobe Illustrator 22.0.1, SVG Export Plug-In . SVG Version: 6.00 Build 0)  -->
<svg version="1.1" id="Capa_1" xmlns="http://www.w3.org/2000/svg" xmlns:xlink="http://www.w3.org/1999/xlink" x="0px" y="0px"
	 viewBox="0 0 488.2 488.2" style="enable-background:new 0 0 488.2 488.2;" xml:space="preserve">
<style type="text/css">
	.st0{fill:#6B6B6B;}
</style>
<g>
	<g>
		<path class="st0" d="M326.9,67.2c6.7-14.5,13.5-28.9,20.6-44.2C268.9-10.1,192.3-8.5,119.1,35.1C48.3,77.2,9.9,141.2,0,223.6
			c16.8,1.5,32.7,2.9,48.6,4.2C57.3,103.3,194.9,7.8,326.9,67.2z"/>
		<path class="st0" d="M484.7,202.5c-15.8,2.7-31.5,5.5-47.9,8.3c8.5,57-3.3,108.4-38.1,153.4c-34.6,44.8-81,69.4-137.7,75.7
			c1.4,16.1,2.8,31.8,4.1,47.5C383.8,483.2,511,364,484.7,202.5z"/>
		<path class="st0" d="M47.9,262.1c-15.1,1.3-30.8,2.7-46.5,4c3.7,99.5,90.5,211.5,221.4,222.1c1.4-16.1,2.8-31.9,4.1-47.2
			C124.5,423.9,65.2,364.6,47.9,262.1z"/>
		<path class="st0" d="M398.9,125.6c12.2,15.8,21.6,33.2,28.9,52.4c15.2-5.5,30.2-11,45.9-16.7c-18.1-48.2-47.6-86.6-89.5-116.7
			c-9.3,13.3-18.5,26.3-28,39.9C372.4,96.4,386.8,109.9,398.9,125.6z"/>
	</g>
</g>
<g id="Play">
	<path class="st0" d="M348.7,227.6l-154.5-97.3c-4.6-2.7-10.2-2.3-14.5-2.3c-17.1,0-17.1,13.2-17.1,16.6v198.9
		c0,2.8-0.1,16.6,17.1,16.6c4.3,0,10,0.5,14.5-2.3l154.5-97.3c12.7-7.5,10.5-16.4,10.5-16.4S361.4,235.2,348.7,227.6z"/>
</g>
</svg>
